<?xml version="1.0" encoding="UTF-8"?>
<svg id="Layer_1" xmlns="http://www.w3.org/2000/svg" version="1.1" viewBox="0 0 31.9 32">
  <!-- Generator: Adobe Illustrator 29.0.1, SVG Export Plug-In . SVG Version: 2.1.0 Build 192)  -->
  <defs>
    <style>
      .st0 {
        fill: #dbdbdb;
      }
    </style>
  </defs>
  <path class="st0" d="M16.7,9.4v5.1l.9-.3c0-.1-.6-.8,0-1.6s.4-.2.4-.3c.1-.2,0-.8.4-1.3.5-.8,1.6-.8,1.7-.9.1-.2,0-.7.6-.9s1.9.7,2.2,1,.3,1,0,1.4c0,.1,1.2.4,1.1,1.6s-.9.3-1.3.2-.6.3-1,.4l.3.7-.3.2-3.2-1.9c-.6-.2-.9.3-.6.8l4,2.3c.2,0,.2,0,.2-.2,0-.4-.3-.7.4-.7.6,1.4,0,2.8-1.2,3.6h3.6v-8.9c0,0-.1-.2-.2-.3-.4-.4-1.7,0-2-.2s0-.7,0-.7h1.9c.2,0,1.1.9,1,1.2-.3,4.1.3,8.6,0,12.7-.6,7.1-8.7,11.1-14.8,7.3v-2.8c-4.7-1.5-1.8-8,2.4-5.5-.3-.7.1-1.5-.3-2.1h-5.6c-.2.1-.2.3-.2.4-.1,1,0,2.2.1,3.2-.6.9-.8,0-.9-.6-.4-4,.3-8.6,0-12.6-.2-.4.7-1.4,1-1.4h10.4c0,0,.2.2.2.3,0,.7-1.1.4-1.6.5ZM15.9,9.4h-8c-.1,0-.5.3-.5.5v8.9h.8s.9-5.2.9-5.2l-.8-.2v-2.5c0-.3.8-.3.8,0v1.9c.4,0,.9-.1,1,.5l-1.1,5.5h1.7s0-2,0-2c0-.7,1.6-.7,1.6,0v2h1.2c.1-1.9-.5-3.7-.8-5.5,0-.5.7-.5,1-.4v-1.9c0-.3.8-.3.8,0v2.5c-.2.3-.6.2-.9.2l.6,3.1c2,.6,6.3-1.2,6.6,1.7.4-.2,1.6-.9,1.2-1.4l-3.8-2.2c-.3,0-2.4,1.2-2.4.6v-5.9ZM22.8,11.2c.3-.4-1.5-1.4-1.9-1.4l-.2.4c0,.3.9.5.6.9s-.9-.2-1.2-.3c-.8,0-1.6.7-1.3,1.5s2.3,1.4,2.6,1.4,1.1-.7,1.1-.7c.3-1.2-.7-1.1-.9-1.5,0-.8.6,0,1.1-.3ZM19.9,17.5c0,0-.7-.4-.7-.3v1.6s1.2,0,1.2,0c0-.4-.2-1-.4-1.3ZM18.3,17.4h-4.2v3c.5-.2,1.7-1.9,2.1-1.8l2,1.9v-3.1ZM19.3,19.5c-.3,0-.2,1.2-.2,1.5-.1.9-.5,1.4-1.1,2,1.3,2.2,2-.3,3.2-.6,1.7-.4,2.1,1.6,3.1,1.4s.9-.8.9-1.3v-2.7l-.2-.2h-5.6ZM16.2,19.6l-1.9,1.9c.7,1.4,3.2,1.5,3.7,0l-1.9-1.9ZM11.1,26.1v-2.8c0-.2.5-.3.7,0v1.7c0,0,.9-.6.9-.6,1.1.4-.6,1.4-.9,1.9,3-.1,2.7-4.6-.3-4.4s-2.8,3.8-.5,4.3ZM15.9,30.5v-7.1l-1.3-.5c.8,2-.6,3.9-2.7,4.1,0,.5-.2,2,0,2.3s3.6,1.3,3.9,1.1ZM16.7,23.4v1.9c.9,0,1.5,1.4,2.2,1.5s1.1-.8,1.7-1.1c1.4-.9,2.2,0,3.2.9l.9-2c-1.3.2-1.7-.8-2.5-1.3s-1.3.5-2,.9c-1.4.9-2.2,0-3.1-1l-.3.2ZM16.7,30.5c2.4-.1,5.1-1.3,6.3-3.3-.5-.6-.8-1.2-1.7-1s-1,1.6-2.5,1.4-1.3-1.1-2.2-1.4v4.3Z"/>
  <path class="st0" d="M17.3,1.7c.5-.2,1.1-1.2,1.6-1s.4,1.6.7,1.7c3-1.7,1.4.9,1.8,1.3,2-.4,2.3-.3,1.4,1.6,0,.3,1.6.1,1.8.7,0,.1-1.2,1.9-1.3,2-.3.2-.7,0-.7-.3s.8-.9.7-1.3c-.3,0-1.3,0-1.4-.3l.4-1.6h-1.6c0,0-.1-1.4-.1-1.4-1.5.5-1.8.9-1.9-1-.2-.2-.9,1-1.5.9s-.6-.9-.7-1.2c-.3-.2-.6,1.1-1.1,1.2s-1.1-1.1-1.4-.9l-.5,1.5-1.4-.5v1.5c-.1,0-1.7,0-1.7,0l.4,1.7-1.5.3c.2.6.9,1,.8,1.7-.2,0-.5,0-.6,0s-1.3-1.6-1.3-1.7c-.2-.8,1.8-.5,1.8-.9-.2-.5-.8-1.4-.3-1.8h1.8c-.8-3.3,1.5-.9,1.8-1.2.4-2.3.7-1.9,2.2-.6,0-.3.7-1.4,1-1.4.5,0,.8,1,1.1,1.4Z"/>
  <path class="st0" d="M7.8,24.2c.2.2.8,1.8.2,1.9s-1-1.3-.9-1.6.5-.6.7-.3Z"/>
  <path class="st0" d="M8.7,26.8c.4-.1,1.2.8.7,1.1s-1.3-1-.7-1.1Z"/>
  <path class="st0" d="M11.7,12.5h-.6c-.2-.7-.2-1.7.7-1.2v1.2Z"/>
  <path class="st0" d="M21,11.6c.6-.2.6.8.3.9-.6.2-.6-.8-.3-.9Z"/>
</svg>