<?xml version="1.0" encoding="UTF-8" standalone="no"?>
<!-- Created with Inkscape (http://www.inkscape.org/) -->

<svg
   width="587.70099"
   height="93.519997"
   viewBox="0 0 155.49657 24.743987"
   version="1.1"
   id="svg1"
   inkscape:version="1.4 (e7c3feb1, 2024-10-09)"
   sodipodi:docname="logos-cedulon.svg"
   inkscape:export-filename="logos-cedulon.png"
   inkscape:export-xdpi="93.400482"
   inkscape:export-ydpi="93.400482"
   xmlns:inkscape="http://www.inkscape.org/namespaces/inkscape"
   xmlns:sodipodi="http://sodipodi.sourceforge.net/DTD/sodipodi-0.dtd"
   xmlns="http://www.w3.org/2000/svg"
   xmlns:svg="http://www.w3.org/2000/svg">
  <sodipodi:namedview
     id="namedview1"
     pagecolor="#ffffff"
     bordercolor="#000000"
     borderopacity="0.25"
     inkscape:showpageshadow="2"
     inkscape:pageopacity="0.0"
     inkscape:pagecheckerboard="0"
     inkscape:deskcolor="#d1d1d1"
     inkscape:document-units="mm"
     inkscape:zoom="0.91328468"
     inkscape:cx="346.00383"
     inkscape:cy="206.39786"
     inkscape:window-width="1680"
     inkscape:window-height="936"
     inkscape:window-x="0"
     inkscape:window-y="25"
     inkscape:window-maximized="1"
     inkscape:current-layer="g1" />
  <defs
     id="defs1">
    <clipPath
       clipPathUnits="userSpaceOnUse"
       id="clipPath7">
      <path
         d="M 0,1080.015 H 1920 V 0.015 H 0 Z"
         transform="matrix(1,0,0,-1,-1246.1301,442.09011)"
         id="path7" />
    </clipPath>
    <clipPath
       clipPathUnits="userSpaceOnUse"
       id="clipPath8">
      <path
         d="M 0,1080.015 H 1920 V 0.015 H 0 Z"
         transform="matrix(1,0,0,-1,-1246.1301,518.53012)"
         id="path8" />
    </clipPath>
    <clipPath
       clipPathUnits="userSpaceOnUse"
       id="clipPath9">
      <path
         d="M 0,1080.015 H 1920 V 0.015 H 0 Z"
         transform="matrix(1,0,0,-1,-677.41202,483.79501)"
         id="path9" />
    </clipPath>
    <clipPath
       clipPathUnits="userSpaceOnUse"
       id="clipPath10">
      <path
         d="M 0,1080.015 H 1920 V 0.015 H 0 Z"
         transform="matrix(1,0,0,-1,-677.41202,538.73302)"
         id="path10" />
    </clipPath>
    <clipPath
       clipPathUnits="userSpaceOnUse"
       id="clipPath11">
      <path
         d="M 0,1080.015 H 1920 V 0.015 H 0 Z"
         transform="matrix(1,0,0,-1,-268.86201,431.45901)"
         id="path11" />
    </clipPath>
    <clipPath
       clipPathUnits="userSpaceOnUse"
       id="clipPath12">
      <path
         d="M 0,1080.015 H 1920 V 0.015 H 0 Z"
         transform="matrix(1,0,0,-1,-268.86201,486.39701)"
         id="path12" />
    </clipPath>
    <clipPath
       clipPathUnits="userSpaceOnUse"
       id="clipPath13">
      <path
         d="M 0,1080.015 H 1920 V 0.015 H 0 Z"
         transform="translate(-1135.5801,-555.19301)"
         id="path13" />
    </clipPath>
    <clipPath
       clipPathUnits="userSpaceOnUse"
       id="clipPath23">
      <path
         d="M 1920,1080 H 0 V 0 h 1920 z"
         transform="translate(-1147.62,-537.33101)"
         id="path23" />
    </clipPath>
    <clipPath
       clipPathUnits="userSpaceOnUse"
       id="clipPath25">
      <path
         d="M 1920,1080 H 0 V 0 h 1920 z"
         transform="translate(-1135.3,-449.87601)"
         id="path25" />
    </clipPath>
    <clipPath
       clipPathUnits="userSpaceOnUse"
       id="clipPath27">
      <path
         d="M 1920,1080 H 0 V 0 h 1920 z"
         transform="translate(-1128.1701,-464.02401)"
         id="path27" />
    </clipPath>
    <clipPath
       clipPathUnits="userSpaceOnUse"
       id="clipPath29">
      <path
         d="M 1920,1080 H 0 V 0 h 1920 z"
         transform="translate(-1201.35,-529.18402)"
         id="path29" />
    </clipPath>
    <clipPath
       clipPathUnits="userSpaceOnUse"
       id="clipPath31">
      <path
         d="M 1920,1080 H 0 V 0 h 1920 z"
         transform="translate(-1222.96,-478.44201)"
         id="path31" />
    </clipPath>
    <clipPath
       clipPathUnits="userSpaceOnUse"
       id="clipPath33">
      <path
         d="M 1920,1080 H 0 V 0 h 1920 z"
         transform="translate(-598.62601,-578.59102)"
         id="path33" />
    </clipPath>
    <clipPath
       clipPathUnits="userSpaceOnUse"
       id="clipPath35">
      <path
         d="M 1920,1080 H 0 V 0 h 1920 z"
         transform="translate(-595.35001,-578.59102)"
         id="path35" />
    </clipPath>
    <clipPath
       clipPathUnits="userSpaceOnUse"
       id="clipPath37">
      <path
         d="M 1920,1080 H 0 V 0 h 1920 z"
         transform="translate(-610.15102,-504.75802)"
         id="path37" />
    </clipPath>
    <clipPath
       clipPathUnits="userSpaceOnUse"
       id="clipPath39">
      <path
         d="M 1920,1080 H 0 V 0 h 1920 z"
         transform="translate(-610.15102,-504.75802)"
         id="path39" />
    </clipPath>
    <clipPath
       clipPathUnits="userSpaceOnUse"
       id="clipPath41">
      <path
         d="M 1920,1080 H 0 V 0 h 1920 z"
         transform="translate(-1041.07,-578.59102)"
         id="path41" />
    </clipPath>
    <clipPath
       clipPathUnits="userSpaceOnUse"
       id="clipPath43">
      <path
         d="M 1920,1080 H 0 V 0 h 1920 z"
         transform="translate(-1037.79,-578.59102)"
         id="path43" />
    </clipPath>
    <clipPath
       clipPathUnits="userSpaceOnUse"
       id="clipPath45">
      <path
         d="M 1920,1080 H 0 V 0 h 1920 z"
         transform="translate(-1052.59,-504.75802)"
         id="path45" />
    </clipPath>
    <clipPath
       clipPathUnits="userSpaceOnUse"
       id="clipPath47">
      <path
         d="M 1920,1080 H 0 V 0 h 1920 z"
         transform="translate(-1052.59,-504.75802)"
         id="path47" />
    </clipPath>
    <clipPath
       clipPathUnits="userSpaceOnUse"
       id="clipPath54">
      <path
         d="M 1700.415,-857.47897 H -219.58502 V 222.521 H 1700.415 Z"
         id="path55"
         style="stroke-width:0.999998" />
    </clipPath>
    <clipPath
       clipPathUnits="userSpaceOnUse"
       id="clipPath50">
      <path
         d="M 1576.855,-757.93702 H -343.14503 V 322.06296 H 1576.855 Z"
         id="path54"
         style="stroke-width:0.999998" />
    </clipPath>
    <clipPath
       clipPathUnits="userSpaceOnUse"
       id="clipPath25-0">
      <path
         d="M 1920,1080 H 0 V 0 h 1920 z"
         transform="translate(-545.23901,-413.01501)"
         id="path25-3" />
    </clipPath>
    <clipPath
       clipPathUnits="userSpaceOnUse"
       id="clipPath27-9">
      <path
         d="M 1920,1080 H 0 V 0 h 1920 z"
         transform="translate(-568.83202,-461.54301)"
         id="path27-9" />
    </clipPath>
    <clipPath
       clipPathUnits="userSpaceOnUse"
       id="clipPath29-9">
      <path
         d="M 1920,1080 H 0 V 0 h 1920 z"
         transform="translate(-545.23901,-497.70401)"
         id="path29-1" />
    </clipPath>
    <clipPath
       clipPathUnits="userSpaceOnUse"
       id="clipPath31-7">
      <path
         d="M 1920,1080 H 0 V 0 h 1920 z"
         transform="translate(-545.23901,-542.92901)"
         id="path31-2" />
    </clipPath>
    <clipPath
       clipPathUnits="userSpaceOnUse"
       id="clipPath33-3">
      <path
         d="M 1920,1080 H 0 V 0 h 1920 z"
         transform="translate(-545.23901,-413.01501)"
         id="path33-6" />
    </clipPath>
    <clipPath
       clipPathUnits="userSpaceOnUse"
       id="clipPath1">
      <path
         d="M 784.41997,524.80697 H -1135.58 V -555.19297 H 784.41997 Z"
         id="path1"
         style="stroke-width:0.999997" />
    </clipPath>
    <clipPath
       clipPathUnits="userSpaceOnUse"
       id="clipPath2">
      <path
         d="m 1651.138,-593.603 h -1920 V 486.39694 h 1920 z"
         id="path2"
         style="stroke-width:0.999997" />
    </clipPath>
    <clipPath
       clipPathUnits="userSpaceOnUse"
       id="clipPath3">
      <path
         d="m 1651.138,-648.54095 h -1920 V 431.45899 h 1920 z"
         id="path3"
         style="stroke-width:0.999997" />
    </clipPath>
    <clipPath
       clipPathUnits="userSpaceOnUse"
       id="clipPath4">
      <path
         d="m 1242.588,-541.267 h -1920 V 538.73293 h 1920 z"
         id="path4"
         style="stroke-width:0.999997" />
    </clipPath>
    <clipPath
       clipPathUnits="userSpaceOnUse"
       id="clipPath5">
      <path
         d="m 1242.588,-596.20495 h -1920 V 483.79498 h 1920 z"
         id="path5"
         style="stroke-width:0.999997" />
    </clipPath>
    <clipPath
       clipPathUnits="userSpaceOnUse"
       id="clipPath6">
      <path
         d="M 673.86997,-561.46988 H -1246.13 V 518.53005 H 673.86997 Z"
         id="path6"
         style="stroke-width:0.999997" />
    </clipPath>
    <clipPath
       clipPathUnits="userSpaceOnUse"
       id="clipPath14">
      <path
         d="M 673.86997,-637.90991 H -1246.13 V 442.09002 H 673.86997 Z"
         id="path48"
         style="stroke-width:0.999997" />
    </clipPath>
  </defs>
  <g
     inkscape:label="Layer 1"
     inkscape:groupmode="layer"
     id="layer1">
    <path
       d="m 44.907109,-61.980213 -9.960937,36.105469 c -1.886719,7.277344 -2.964844,12.761719 -3.234375,16.5351565 h -5.121094 c -0.175781,-2.5195315 -0.632812,-5.3906255 -1.253906,-8.6250005 -0.632813,-3.140625 -1.265625,-5.753906 -1.804688,-7.816406 L 13.559453,-61.886463 H 0.36414063 L 19.852422,0.09400625 H 38.262578 L 57.668828,-61.886463 Z m 15.931641,7.816407 c 1.171875,1.078125 2.964844,1.617187 5.390625,1.617187 2.332031,0 4.042969,-0.539062 5.203125,-1.617187 1.171875,-1.078125 1.804688,-2.519532 1.804688,-4.40625 0,-1.699219 -0.632813,-3.140625 -1.804688,-4.21875 -1.160156,-1.078125 -2.871094,-1.617188 -5.203125,-1.617188 -2.425781,0 -4.21875,0.539063 -5.390625,1.617188 -1.171875,1.078125 -1.710937,2.519531 -1.710937,4.3125 0,1.792968 0.539062,3.328125 1.710937,4.40625 z M 71.702031,0.09400625 V -45.363025 H 60.569219 V 0.09400625 Z M 99.724492,-1.3474 97.755742,-8.9763063 c -1.441406,0.890625 -2.871094,1.2539063 -4.21875,1.2539063 -2.882812,0 -4.230469,-1.5234375 -4.230469,-4.582031 V -63.327869 H 78.173711 v 52.910156 c 0,4.0429692 0.902344,7.007813 2.695312,8.8945317 1.792969,1.7929688 4.664063,2.7773438 8.53125,2.7773438 2.15625,0 4.3125,-0.26953125 6.292969,-0.80859375 1.96875,-0.5390625 3.316406,-1.16015625 4.03125,-1.69921875 z m 22.778318,0 -1.96875,-7.6289063 c -1.4414,0.890625 -2.87109,1.2539063 -4.21875,1.2539063 -2.88281,0 -4.23047,-1.5234375 -4.23047,-4.582031 v -51.023438 h -11.13281 v 52.910156 c 0,4.0429692 0.90235,7.007813 2.69531,8.8945317 1.79297,1.7929688 4.66407,2.7773438 8.53125,2.7773438 2.15625,0 4.3125,-0.26953125 6.29297,-0.80859375 1.96875,-0.5390625 3.31641,-1.16015625 4.03125,-1.69921875 z m 49.5293,-0.1757813 -2.15625,-6.8320312 c -0.89063,0.5390625 -1.69922,0.8085937 -2.33203,0.8085937 -0.98438,0 -1.71094,-0.4453125 -2.15625,-1.3476562 -0.53906,-0.890625 -0.71485,-2.15625 -0.71485,-3.773438 v -17.777343 c 0,-5.121094 -1.71093,-9.082032 -5.12109,-11.859375 -3.41016,-2.871094 -8.17969,-4.21875 -14.36719,-4.21875 -5.92968,0 -10.69922,1.253906 -14.47265,3.761718 -3.76172,2.519532 -5.91797,6.023438 -6.64453,10.429688 l 9.70312,2.238281 c 0.71484,-2.695312 1.79297,-4.664062 3.41016,-6.105469 1.61718,-1.441406 3.86718,-2.15625 6.73828,-2.15625 6.375,0 9.52734,2.871094 9.52734,8.449219 v 3.316406 c -2.88281,-0.445312 -5.92969,-0.714843 -9.16406,-0.714843 -6.73828,0 -12.12891,1.253906 -16.17188,3.773437 -4.04296,2.507813 -6.10546,6.28125 -6.10546,11.226563 0,4.0429685 1.4414,7.2773435 4.21875,9.785156 2.78906,2.51953125 6.64453,3.7734375 11.49609,3.7734375 4.5,0 8.08594,-1.078125 10.6875,-3.140625 2.69531,-2.15625 4.5,-5.296875 5.57812,-9.6093755 h 1.88672 c -0.1875,1.171875 -0.36328,2.4257817 -0.36328,3.773438 0,2.9648437 0.8086,5.203125 2.33203,6.73828125 1.53516,1.4296875 3.69141,2.23828125 6.46875,2.23828125 1.44141,0 2.8711,-0.3515625 4.3125,-0.890625 1.44141,-0.5390625 2.60157,-1.171875 3.32813,-1.8046875 z M 153.25867,-20.484119 c -0.89062,8.988281 -5.20312,13.5703127 -12.84375,13.5703127 -2.0625,0 -3.67969,-0.5390625 -4.93359,-1.6171875 -1.26563,-1.078125 -1.88672,-2.6015622 -1.88672,-4.4062502 0,-2.695312 1.16016,-4.664062 3.50391,-5.929687 2.33203,-1.347657 5.74218,-1.96875 10.05468,-1.96875 2.15625,0 4.21875,0.08203 6.10547,0.351562 z M 247.0409,2.5625e-4 226.38074,-61.980213 H 208.59168 L 188.11902,2.5625e-4 h 12.21094 l 4.94531,-15.98437525 h 24.16407 L 234.37293,2.5625e-4 Z M 207.97059,-24.796619 211.28699,-35.6599 c 2.07422,-7.183594 3.32813,-13.019531 3.67969,-17.519531 h 4.85156 c 0.1875,2.519531 0.63281,5.484375 1.34766,8.71875 0.72656,3.316406 1.4414,6.28125 2.25,8.894531 l 3.32812,10.863281 z m 62.09179,23.449219 -1.96875,-7.6289063 c -1.4414,0.890625 -2.87109,1.2539063 -4.21875,1.2539063 -2.88281,0 -4.23047,-1.5234375 -4.23047,-4.582031 V -63.327869 H 248.5116 v 52.910156 c 0,4.0429692 0.90235,7.007813 2.69531,8.8945317 1.79297,1.7929688 4.66407,2.7773438 8.53125,2.7773438 2.15625,0 4.3125,-0.26953125 6.29297,-0.80859375 1.96875,-0.5390625 3.31641,-1.16015625 4.03125,-1.69921875 z m 22.77832,0 -1.96875,-7.6289063 c -1.4414,0.890625 -2.87109,1.2539063 -4.21875,1.2539063 -2.88281,0 -4.23047,-1.5234375 -4.23047,-4.582031 v -51.023438 h -11.13281 v 52.910156 c 0,4.0429692 0.90235,7.007813 2.69531,8.8945317 1.79297,1.7929688 4.66407,2.7773438 8.53125,2.7773438 2.15625,0 4.3125,-0.26953125 6.29297,-0.80859375 1.96875,-0.5390625 3.31641,-1.16015625 4.03125,-1.69921875 z m 36.53028,-39.070313 c -3.67969,-4.136718 -8.89453,-6.199218 -15.53907,-6.199218 -4.67578,0 -8.80078,1.078125 -12.22265,3.140625 -3.41016,2.0625 -6.10547,4.945312 -7.89844,8.625 -1.79297,3.773437 -2.69531,8.085937 -2.69531,13.019531 0,7.371094 1.88672,13.03125 5.83594,16.9804687 3.94921,4.0429688 9.43359,6.0234375 16.61718,6.0234375 5.75391,0 10.33594,-1.17187495 13.83985,-3.6914062 3.5039,-2.5078125 5.74218,-5.8359375 6.82031,-10.054688 l -8.89453,-2.25 c -1.96875,5.039063 -5.66016,7.4531255 -11.03906,7.4531255 -3.32813,0 -5.92969,-0.984375 -7.91016,-3.0468755 -1.98047,-2.0625 -3.23438,-5.027343 -3.59766,-8.988281 h 32.07422 c 0.082,-0.890625 0.17578,-2.332031 0.17578,-4.125 0,-7.101562 -1.88672,-12.761719 -5.5664,-16.886719 z m -23.08594,5.296875 c 1.98047,-2.15625 4.58203,-3.234375 7.72266,-3.234375 3.32812,0 5.83593,1.171875 7.64062,3.410157 1.69922,2.25 2.60156,5.308593 2.69531,9.164062 h -21.65625 c 0.36328,-4.042969 1.61719,-7.183594 3.59766,-9.339844 z m 71.82422,-7.640625 c -2.51953,-2.507812 -6.02344,-3.855468 -10.33594,-3.855468 -8.34375,0 -13.82812,4.3125 -16.52344,12.84375 h -1.71093 l -1.16016,-11.671875 h -9.16406 V 2.5625e-4 h 11.13281 V -16.523181 c 0,-7.195313 1.07812,-12.304688 3.23437,-15.539063 2.15625,-3.234375 5.1211,-4.851562 8.80079,-4.851562 2.69531,0 4.76953,0.808593 6.19921,2.425781 1.44141,1.617187 2.07422,3.949219 2.07422,6.820312 V 2.5625e-4 h 11.13282 V -31.980213 c 0,-4.664062 -1.25391,-8.261718 -3.77344,-10.78125 z m 44.75097,-20.566406 v 12.222656 c 0,3.046875 0.17579,7.089844 0.6211,12.117188 0,0.902344 0.0937,1.804687 0.1875,2.695312 0,0.902344 0.082,1.710938 0.082,2.519532 h -1.88672 c -2.33203,-8.53125 -7.72266,-12.84375 -16.25391,-12.84375 -3.59765,0 -6.91406,0.984375 -9.97265,2.777343 -3.0586,1.804688 -5.56641,4.582032 -7.35938,8.179688 -1.88672,3.597656 -2.78906,7.992187 -2.78906,13.207031 0,5.121094 0.80859,9.433594 2.60156,12.9375002 1.71094,3.5859375 4.13672,6.1875 7.1836,7.9921875 3.05859,1.7929688 6.5625,2.6953125 10.51172,2.6953125 8.53125,0 13.92187,-4.2304687 16.26562,-12.7617192 h 1.79297 L 424.9227,2.5625e-4 h 9.07032 V -63.327869 Z m -5.12109,51.925781 c -2.15625,2.6835942 -5.03906,4.0312505 -8.625,4.0312505 -3.86719,0 -6.83203,-1.2539063 -8.89453,-3.8554685 -2.0625,-2.519532 -3.05859,-6.292969 -3.05859,-11.226563 0,-4.945312 1.07812,-8.800781 3.23437,-11.589844 2.15625,-2.695312 5.03906,-4.136718 8.625,-4.136718 3.50391,0 6.375,1.441406 8.53125,4.230468 2.15625,2.871094 3.23438,6.46875 3.42188,10.957032 0,5.027343 -1.07813,8.894531 -3.23438,11.589843 z m 58.53516,-29.015625 c -3.67969,-4.136718 -8.89453,-6.199218 -15.53907,-6.199218 -4.67578,0 -8.80078,1.078125 -12.22265,3.140625 -3.41016,2.0625 -6.10547,4.945312 -7.89844,8.625 -1.79297,3.773437 -2.69531,8.085937 -2.69531,13.019531 0,7.371094 1.88672,13.03125 5.83594,16.9804687 3.94921,4.0429688 9.43359,6.0234375 16.61718,6.0234375 5.75391,0 10.33594,-1.17187495 13.83985,-3.6914062 3.5039,-2.5078125 5.74218,-5.8359375 6.82031,-10.054688 l -8.89453,-2.25 c -1.96875,5.039063 -5.66016,7.4531255 -11.03906,7.4531255 -3.32813,0 -5.92969,-0.984375 -7.91016,-3.0468755 -1.98047,-2.0625 -3.23438,-5.027343 -3.59766,-8.988281 h 32.07422 c 0.082,-0.890625 0.17578,-2.332031 0.17578,-4.125 0,-7.101562 -1.88672,-12.761719 -5.5664,-16.886719 z m -23.08594,5.296875 c 1.98047,-2.15625 4.58203,-3.234375 7.72266,-3.234375 3.32812,0 5.83593,1.171875 7.64062,3.410157 1.69922,2.25 2.60156,5.308593 2.69531,9.164062 H 449.5907 c 0.36328,-4.042969 1.61719,-7.183594 3.59766,-9.339844 z m 0,0"
       style="fill:#222221;fill-opacity:1;fill-rule:nonzero;stroke:none"
       aria-label="Villa Allende"
       transform="matrix(0.12386848,0,0,0.12386848,93.919622,20.819076)"
       clip-path="url(#clipPath14)"
       id="path14" />
    <path
       d="m 35.250859,-37.829275 -5.320312,13.980469 c -2.90625,7.570312 -4.546875,13.101562 -4.933594,16.6640622 H 23.907109 C 23.461797,-10.805838 21.703984,-16.337088 18.692266,-23.848806 L 12.832891,-37.829275 H 4.6649219 V -0.00115 h 5.4726561 v -17.378906 c 0,-4.21875 -0.4335936,-9.433594 -1.1953124,-15.679688 h 1.0898434 l 10.910157,30.6445315 h 6.902343 L 38.051641,-33.059744 h 1.148437 c -0.714844,5.484375 -1.042969,10.746094 -1.042969,15.679688 V -0.00115 h 5.484375 v -37.828125 z m 32.976563,10.417969 v 10.195312 c 0,2.519531 -0.375,4.828125 -1.042969,6.855469 -0.703125,2.0859375 -1.699219,3.6679687 -2.953125,4.828125 -1.265625,1.1484375 -2.683594,1.6992187 -4.277344,1.6992187 -1.699218,0 -3.011718,-0.5039062 -4.007812,-1.5351562 -0.984375,-0.9960938 -1.476563,-2.4726563 -1.476563,-4.3359375 V -27.411306 H 49.149297 V -8.06365 c 0,2.7421875 0.878906,4.8867187 2.53125,6.421875 1.640625,1.53515625 3.832031,2.296875 6.515625,2.296875 2.414062,0 4.394531,-0.71484375 5.917969,-2.1328125 1.59375,-1.4296875 2.800781,-3.3515625 3.574218,-5.7539063 h 1.03125 l 0.503907,7.2304688 h 4.265625 v -27.410156 z m 32.548828,1.640625 c -1.59375,-1.535157 -3.621094,-2.296875 -6.140625,-2.296875 -2.625,0 -4.710937,0.65625 -6.304687,1.96875 -1.640625,1.324218 -2.847657,3.234375 -3.667969,5.8125 H 83.62 l -0.773437,-7.125 H 78.569219 V -0.00115 h 5.320312 v -9.9726563 c 0,-4.7226567 0.714844,-8.0624997 2.25,-10.0898437 1.535157,-1.980469 3.503907,-3.011719 6.035157,-3.011719 1.804687,0 3.175781,0.539063 4.160156,1.582031 0.984375,1.101563 1.476562,2.578125 1.476562,4.5 V -0.00115 h 5.320314 v -19.347656 c 0,-2.742188 -0.82031,-4.886719 -2.35547,-6.421875 z m 7.16016,-7.511719 c 0.55078,0.667969 1.42968,0.996094 2.63672,0.996094 1.14843,0 2.02734,-0.328125 2.625,-0.996094 0.55078,-0.65625 0.8789,-1.476563 0.8789,-2.566406 0,-0.996094 -0.32812,-1.816407 -0.92578,-2.472657 -0.60937,-0.65625 -1.48828,-0.984375 -2.57812,-0.984375 -1.20704,0 -2.08594,0.328125 -2.63672,0.984375 -0.59766,0.65625 -0.87891,1.476563 -0.87891,2.472657 0,1.089843 0.28125,1.910156 0.87891,2.566406 z m 5.26172,33.28125 v -27.410156 h -5.32032 V -0.00115 Z m 6.28125,-2.9648438 c 2.41406,2.41406255 5.70703,3.6210938 9.82031,3.6210938 3.07031,0 5.58984,-0.65625 7.55859,-2.0859375 1.98047,-1.3710938 3.29297,-3.28125 3.94922,-5.6953125 l -4.05469,-1.3125 c -0.65625,1.5351562 -1.59375,2.6835937 -2.80078,3.4453125 -1.20703,0.8203125 -2.68359,1.2070312 -4.32422,1.2070312 -2.51953,0 -4.54687,-0.8203125 -6.03515,-2.578125 -1.53516,-1.7460937 -2.25,-4.1601567 -2.25,-7.2890627 0,-3.292969 0.77343,-5.8125 2.30859,-7.558594 1.53516,-1.757812 3.50391,-2.636718 5.91797,-2.636718 3.89062,0 6.14062,1.59375 6.79687,4.710937 l 4.17188,-1.3125 c -0.38672,-2.460937 -1.53516,-4.324219 -3.45703,-5.648437 -1.96875,-1.3125 -4.5,-1.96875 -7.67578,-1.96875 -2.625,0 -4.9336,0.550781 -7.01953,1.640625 -2.07422,1.101562 -3.66797,2.742187 -4.81641,4.886718 -1.20703,2.191407 -1.75781,4.769532 -1.75781,7.839844 0,4.7578127 1.20703,8.3320315 3.66797,10.7343752 z M 143.41785,-33.2824 c 0.55078,0.667969 1.42969,0.996094 2.63672,0.996094 1.14844,0 2.02734,-0.328125 2.625,-0.996094 0.55078,-0.65625 0.87891,-1.476563 0.87891,-2.566406 0,-0.996094 -0.32813,-1.816407 -0.92578,-2.472657 -0.60938,-0.65625 -1.48829,-0.984375 -2.57813,-0.984375 -1.20703,0 -2.08594,0.328125 -2.63672,0.984375 -0.59765,0.65625 -0.8789,1.476563 -0.8789,2.472657 0,1.089843 0.28125,1.910156 0.8789,2.566406 z m 5.26172,33.28125 v -27.410156 h -5.32031 V -0.00115 Z m 29.99121,-24.445313 c -2.07422,-2.414062 -4.875,-3.621093 -8.3789,-3.621093 -2.69532,0 -4.9336,0.714843 -6.75,2.085937 -1.86329,1.371094 -3.17579,3.28125 -3.9961,5.695313 h -0.9375 l -0.8789,-7.125 h -4.27735 V 10.9676 h 5.32031 V 3.0691625 c 0,-3.7265625 -0.10546,-7.1835938 -0.26953,-10.3007813 h 0.92578 c 0.83204,2.5664063 2.14454,4.546875 4.00782,5.859375 1.80468,1.3710938 3.99609,2.0273438 6.52734,2.0273438 2.19141,0 4.21875,-0.55078125 6.02344,-1.6992188 1.75781,-1.1484375 3.17578,-2.8476562 4.21875,-5.0390625 1.04297,-2.1914062 1.59375,-4.7695317 1.59375,-7.8398437 0,-4.605469 -1.04297,-8.121094 -3.12891,-10.523438 z m -4.4414,17.9179692 c -1.3711,1.8164063 -3.33985,2.6953125 -5.91797,2.6953125 -2.57813,0 -4.65235,-0.8789062 -6.1875,-2.6953125 -1.53516,-1.7460937 -2.3086,-4.1601562 -2.3086,-7.1250002 0,-1.863281 0.32813,-3.621094 1.04297,-5.15625 0.71485,-1.535156 1.75781,-2.789062 3.07031,-3.667969 1.3125,-0.878906 2.80079,-1.371093 4.54688,-1.371093 5.15625,0 7.79297,3.339843 7.79297,9.972656 0,3.128906 -0.71485,5.6015625 -2.03906,7.40625 z m 37.91601,5.81250005 -1.25391,-3.28125005 c -0.60937,0.375 -1.10156,0.5390625 -1.53515,0.5390625 -0.65625,0 -1.10156,-0.2695312 -1.42969,-0.9257812 -0.32812,-0.65625 -0.43359,-1.5351563 -0.43359,-2.6835938 V -18.645681 c 0,-2.953125 -1.04297,-5.308594 -3.07032,-6.960938 -2.02734,-1.640625 -4.76953,-2.460937 -8.16796,-2.460937 -3.39844,0 -6.14063,0.761718 -8.28516,2.191406 -2.19141,1.429687 -3.44531,3.457031 -3.77344,6.082031 l 4.32422,1.324219 c 0.44531,-1.757813 1.26563,-3.128906 2.35547,-4.007813 1.10156,-0.878906 2.69531,-1.371093 4.66406,-1.371093 4.38281,0 6.63281,1.863281 6.63281,5.542968 v 2.238282 c -2.08593,-0.328125 -4.11328,-0.492188 -5.97656,-0.492188 -4.05469,0 -7.28906,0.773438 -9.70312,2.308594 -2.41407,1.535156 -3.6211,3.785156 -3.6211,6.7382812 0,2.4140625 0.83203,4.3828125 2.57813,5.9179688 1.69922,1.53515625 4.05469,2.25 7.07812,2.25 2.6836,0 4.81641,-0.59765625 6.41016,-1.921875 1.53516,-1.2539063 2.63672,-3.234375 3.29297,-5.9179688 h 1.08984 c -0.16406,0.7734375 -0.21094,1.5351563 -0.21094,2.3554688 0,1.8632812 0.4336,3.234375 1.3125,4.171875 0.87891,0.87890625 2.13282,1.37109375 3.78516,1.37109375 0.65625,0 1.41797,-0.1640625 2.19141,-0.4453125 0.76172,-0.328125 1.3125,-0.59765625 1.74609,-0.92578125 z M 202.06727,-12.2824 c -0.65625,5.7070312 -3.67969,8.5546875 -9,8.5546875 -1.47657,0 -2.625,-0.3867188 -3.44532,-1.0429688 -0.82031,-0.7148437 -1.20703,-1.640625 -1.20703,-2.8007812 0,-1.6992188 0.76172,-2.9531255 2.35547,-3.7734375 1.59375,-0.832031 3.83203,-1.207031 6.79688,-1.207031 1.14843,0 2.63671,0.04687 4.5,0.269531 z m 23.05371,11.68359375 -1.14844,-4.00781255 c -0.87891,0.4921875 -1.75781,0.7148438 -2.63672,0.7148438 -1.80469,0 -2.68359,-0.9375 -2.68359,-2.8007813 V -38.649588 h -5.32032 v 32.8945317 c 0,2.1914063 0.50391,3.8320313 1.48829,4.87500005 0.98437,1.04296875 2.51953,1.53515625 4.65234,1.53515625 1.20703,0 2.30859,-0.10546875 3.39844,-0.38671875 1.10156,-0.2109375 1.8164,-0.5390625 2.25,-0.8671875 z M 226.74695,-33.2824 c 0.55078,0.667969 1.42969,0.996094 2.63672,0.996094 1.14844,0 2.02735,-0.328125 2.625,-0.996094 0.55078,-0.65625 0.87891,-1.476563 0.87891,-2.566406 0,-0.996094 -0.32813,-1.816407 -0.92578,-2.472657 -0.60938,-0.65625 -1.48828,-0.984375 -2.57813,-0.984375 -1.20703,0 -2.08594,0.328125 -2.63672,0.984375 -0.59765,0.65625 -0.8789,1.476563 -0.8789,2.472657 0,1.089843 0.28125,1.910156 0.8789,2.566406 z m 5.26172,33.28125 v -27.410156 h -5.32031 V -0.00115 Z m 25.7461,-38.648438 v 8.0625 c 0,1.535157 0.0586,3.9375 0.26953,7.125 0.0586,1.757813 0.11718,2.847657 0.11718,3.175782 h -1.10156 c -1.41797,-5.15625 -4.71094,-7.78125 -9.91406,-7.78125 -2.20313,0 -4.27734,0.597656 -6.19922,1.699218 -1.92187,1.089844 -3.45703,2.742188 -4.60547,4.933594 -1.14844,2.191406 -1.69922,4.828125 -1.69922,7.898438 0,3.070312 0.49219,5.6367185 1.59375,7.722656 1.08985,2.1445312 2.56641,3.7265625 4.48828,4.828125 1.92188,1.08984375 4.11329,1.640625 6.52735,1.640625 5.15625,0 8.39062,-2.625 9.80859,-7.8867188 h 1.04297 l 0.71484,7.2304688 h 4.27735 v -38.648438 z m -3.39844,32.1210942 c -1.53516,1.8164063 -3.50391,2.6953125 -5.91797,2.6953125 -2.63672,0 -4.72266,-0.8320312 -6.14063,-2.53125 -1.42968,-1.6992187 -2.14453,-4.1015627 -2.14453,-7.1718747 0,-3.1875 0.71485,-5.648438 2.25,-7.511719 1.48828,-1.863281 3.45703,-2.800781 5.91797,-2.800781 2.41406,0 4.33594,0.9375 5.8711,2.800781 1.53515,1.863281 2.29687,4.21875 2.41406,7.066406 0,3.175781 -0.77344,5.6484377 -2.25,7.4531252 z m 40.98047,5.81250005 -1.25391,-3.28125005 c -0.60937,0.375 -1.10156,0.5390625 -1.53516,0.5390625 -0.65625,0 -1.10156,-0.2695312 -1.42968,-0.9257812 -0.32813,-0.65625 -0.4336,-1.5351563 -0.4336,-2.6835938 V -18.645681 c 0,-2.953125 -1.04297,-5.308594 -3.07031,-6.960938 -2.02734,-1.640625 -4.76953,-2.460937 -8.16797,-2.460937 -3.39844,0 -6.14062,0.761718 -8.28515,2.191406 -2.19141,1.429687 -3.44532,3.457031 -3.77344,6.082031 l 4.32422,1.324219 c 0.44531,-1.757813 1.26562,-3.128906 2.35547,-4.007813 1.10156,-0.878906 2.69531,-1.371093 4.66406,-1.371093 4.38281,0 6.63281,1.863281 6.63281,5.542968 v 2.238282 c -2.08594,-0.328125 -4.11328,-0.492188 -5.97656,-0.492188 -4.05469,0 -7.28906,0.773438 -9.70313,2.308594 -2.41406,1.535156 -3.62109,3.785156 -3.62109,6.7382812 0,2.4140625 0.83203,4.3828125 2.57812,5.9179688 1.69922,1.53515625 4.05469,2.25 7.07813,2.25 2.68359,0 4.81641,-0.59765625 6.41016,-1.921875 1.53515,-1.2539063 2.63671,-3.234375 3.29296,-5.9179688 h 1.08985 c -0.16406,0.7734375 -0.21094,1.5351563 -0.21094,2.3554688 0,1.8632812 0.43359,3.234375 1.3125,4.171875 0.87891,0.87890625 2.13281,1.37109375 3.78516,1.37109375 0.65625,0 1.41797,-0.1640625 2.1914,-0.4453125 0.76172,-0.328125 1.3125,-0.59765625 1.7461,-0.92578125 z M 285.25867,-12.2824 c -0.65625,5.7070312 -3.67969,8.5546875 -9,8.5546875 -1.47656,0 -2.625,-0.3867188 -3.44531,-1.0429688 -0.82031,-0.7148437 -1.20703,-1.640625 -1.20703,-2.8007812 0,-1.6992188 0.76172,-2.9531255 2.35547,-3.7734375 1.59375,-0.832031 3.83203,-1.207031 6.79687,-1.207031 1.14844,0 2.63672,0.04687 4.5,0.269531 z m 31.93653,-26.367188 v 8.0625 c 0,1.535157 0.0586,3.9375 0.26953,7.125 0.0586,1.757813 0.11718,2.847657 0.11718,3.175782 h -1.10156 c -1.41797,-5.15625 -4.71094,-7.78125 -9.91406,-7.78125 -2.20313,0 -4.27734,0.597656 -6.19922,1.699218 -1.92187,1.089844 -3.45703,2.742188 -4.60547,4.933594 -1.14844,2.191406 -1.69922,4.828125 -1.69922,7.898438 0,3.070312 0.49219,5.6367185 1.59375,7.722656 1.08985,2.1445312 2.56641,3.7265625 4.48828,4.828125 1.92188,1.08984375 4.11329,1.640625 6.52735,1.640625 5.15625,0 8.39062,-2.625 9.80859,-7.8867188 h 1.04297 l 0.71484,7.2304688 h 4.27735 v -38.648438 z m -3.39844,32.1210942 c -1.53516,1.8164063 -3.50391,2.6953125 -5.91797,2.6953125 -2.63672,0 -4.72266,-0.8320312 -6.14063,-2.53125 -1.42968,-1.6992187 -2.14453,-4.1015627 -2.14453,-7.1718747 0,-3.1875 0.71485,-5.648438 2.25,-7.511719 1.48828,-1.863281 3.45703,-2.800781 5.91797,-2.800781 2.41406,0 4.33594,0.9375 5.8711,2.800781 1.53515,1.863281 2.29687,4.21875 2.41406,7.066406 0,3.175781 -0.77344,5.6484377 -2.25,7.4531252 z m 46.48828,-32.1210942 v 8.0625 c 0,1.535157 0.0586,3.9375 0.26953,7.125 0.0586,1.757813 0.11719,2.847657 0.11719,3.175782 h -1.10156 c -1.41797,-5.15625 -4.71094,-7.78125 -9.91407,-7.78125 -2.20312,0 -4.27734,0.597656 -6.19922,1.699218 -1.92187,1.089844 -3.45703,2.742188 -4.60546,4.933594 -1.14844,2.191406 -1.69922,4.828125 -1.69922,7.898438 0,3.070312 0.49218,5.6367185 1.59375,7.722656 1.08984,2.1445312 2.5664,3.7265625 4.48828,4.828125 1.92187,1.08984375 4.11328,1.640625 6.52734,1.640625 5.15625,0 8.39063,-2.625 9.8086,-7.8867188 h 1.04296 l 0.71485,7.2304688 h 4.27734 v -38.648438 z m -3.39844,32.1210942 c -1.53515,1.8164063 -3.5039,2.6953125 -5.91797,2.6953125 -2.63672,0 -4.72265,-0.8320312 -6.14062,-2.53125 -1.42969,-1.6992187 -2.14453,-4.1015627 -2.14453,-7.1718747 0,-3.1875 0.71484,-5.648438 2.25,-7.511719 1.48828,-1.863281 3.45703,-2.800781 5.91797,-2.800781 2.41406,0 4.33593,0.9375 5.87109,2.800781 1.53516,1.863281 2.29687,4.21875 2.41406,7.066406 0,3.175781 -0.77344,5.6484377 -2.25,7.4531252 z m 33.98731,-17.8710942 c -2.19141,-2.414062 -5.21485,-3.667968 -8.94141,-3.667968 -2.74219,0 -5.14453,0.65625 -7.17187,1.921875 -2.03907,1.3125 -3.57422,3.070312 -4.60547,5.308593 -1.10157,2.25 -1.59375,4.828125 -1.59375,7.734375 0,4.335938 1.10156,7.7343755 3.39843,10.1367192 2.29688,2.41406255 5.53125,3.6210938 9.76172,3.6210938 3.17578,0 5.75391,-0.65625 7.78125,-2.0859375 2.02735,-1.3710938 3.39844,-3.28125 4.05469,-5.6953125 l -4.05469,-1.3125 c -0.65625,1.5351562 -1.53515,2.7304687 -2.74218,3.5039062 -1.20704,0.8203125 -2.80079,1.2070313 -4.71094,1.2070313 -2.19141,0 -4.00781,-0.65625 -5.42578,-2.0859375 -1.42969,-1.3710938 -2.3086,-3.3398438 -2.53125,-5.917969 h 20.01562 c 0.0586,-0.550781 0.10547,-1.429687 0.10547,-2.578125 0,-4.277344 -1.14844,-7.617187 -3.33984,-10.089844 z m -14.14453,2.742188 c 1.37109,-1.417969 3.07031,-2.191406 5.15625,-2.191406 2.25,0 3.99609,0.773437 5.20312,2.191406 1.20703,1.476562 1.80469,3.515625 1.92188,6.082031 h -14.85938 c 0.32813,-2.625 1.14844,-4.652344 2.57813,-6.082031 z m 0,0"
       style="fill:#222221;fill-opacity:1;fill-rule:nonzero;stroke:none"
       aria-label="Municipalidad de"
       transform="matrix(0.12386848,0,0,0.12386848,93.919622,11.350566)"
       clip-path="url(#clipPath6)"
       id="path15" />
    <path
       d="M 0,0 C 0.8,-1.044 2.29,-1.243 3.33,-0.447 4.38,0.35 4.58,1.841 3.78,2.884 l -4.23,5.541 6.87,1.183 c 0.7,0.119 1.3,0.542 1.66,1.153 0.35,0.611 0.41,1.348 0.17,2.01 l -2.41,6.542 6.91,-0.895 c 0.7,-0.091 1.41,0.134 1.92,0.615 0.52,0.48 0.8,1.165 0.76,1.869 l -0.38,6.962 6.35,-2.893 c 0.64,-0.293 1.38,-0.285 2.01,0.021 0.64,0.306 1.11,0.879 1.28,1.564 l 1.69,6.762 5.21,-4.634 c 0.53,-0.469 1.24,-0.68 1.94,-0.575 0.69,0.105 1.31,0.515 1.67,1.119 l 3.62,5.963 3.61,-5.964 c 0.36,-0.603 0.98,-1.014 1.68,-1.119 0.69,-0.104 1.4,0.105 1.93,0.574 l 5.21,4.634 1.69,-6.763 c 0.17,-0.685 0.64,-1.258 1.28,-1.564 0.63,-0.307 1.37,-0.315 2.01,-0.022 l 6.35,2.892 -0.38,-6.961 c -0.04,-0.705 0.24,-1.39 0.76,-1.87 0.51,-0.481 1.22,-0.707 1.92,-0.615 l 6.91,0.894 -2.41,-6.542 c -0.24,-0.662 -0.18,-1.399 0.17,-2.01 0.36,-0.611 0.96,-1.034 1.66,-1.154 l 6.87,-1.184 -4.23,-5.54 c -0.8,-1.043 -0.6,-2.534 0.44,-3.331 0.43,-0.329 0.94,-0.488 1.44,-0.488 0.72,0 1.42,0.322 1.89,0.934 l 6.62,8.658 c 0.5,0.661 0.62,1.537 0.32,2.311 -0.3,0.773 -0.99,1.332 -1.81,1.473 l -7.92,1.366 2.78,7.545 c 0.29,0.779 0.15,1.653 -0.37,2.303 -0.52,0.65 -1.34,0.982 -2.17,0.875 l -7.97,-1.031 0.43,8.029 c 0.05,0.83 -0.34,1.623 -1.03,2.092 -0.69,0.468 -1.57,0.543 -2.32,0.199 l -7.32,-3.336 -1.95,7.8 c -0.21,0.807 -0.81,1.449 -1.61,1.694 -0.79,0.245 -1.66,0.057 -2.28,-0.495 l -6.01,-5.344 -4.16,6.878 c -0.43,0.711 -1.2,1.146 -2.03,1.146 -0.83,0 -1.61,-0.434 -2.04,-1.145 l -4.16,-6.878 -6.01,5.345 c -0.62,0.553 -1.48,0.741 -2.28,0.496 -0.79,-0.245 -1.4,-0.887 -1.6,-1.693 l -1.96,-7.8 -7.31,3.337 c -0.76,0.345 -1.64,0.27 -2.33,-0.199 -0.68,-0.468 -1.08,-1.261 -1.03,-2.091 l 0.43,-8.029 -7.97,1.033 C 1.73,24.637 0.91,24.305 0.39,23.656 -0.13,23.006 -0.27,22.132 0.02,21.352 L 2.8,13.807 -5.12,12.443 C -5.94,12.302 -6.63,11.744 -6.93,10.97 -7.24,10.196 -7.11,9.32 -6.61,8.659 L 0,0"
       style="fill:#000000;fill-opacity:1;fill-rule:nonzero;stroke:none"
       transform="matrix(0.12386848,0,0,-0.12386848,80.225962,6.8091858)"
       clip-path="url(#clipPath1)"
       id="path20" />
    <path
       id="path22"
       d="m 0,0 c -1.4,0 -2.53,-1.13 -2.53,-2.525 v -3.028 c 0,-1.395 1.13,-2.525 2.53,-2.525 1.39,0 2.52,1.13 2.52,2.525 v 3.028 C 2.52,-1.13 1.39,0 0,0"
       style="fill:#000000;fill-opacity:1;fill-rule:nonzero;stroke:none"
       transform="matrix(0.12386848,0,0,-0.12386848,81.717352,9.021736)"
       clip-path="url(#clipPath23)" />
    <path
       id="path24"
       d="m 0,0 c -0.78,1.06 -2.26,1.291 -3.32,0.517 -1.06,-0.774 -1.29,-2.26 -0.52,-3.32 0.54,-0.74 1.11,-1.476 1.69,-2.188 0.47,-0.578 1.15,-0.877 1.84,-0.877 0.53,0 1.06,0.174 1.5,0.532 1.02,0.828 1.17,2.325 0.34,3.343 C 1.01,-1.345 0.49,-0.674 0,0"
       style="fill:#000000;fill-opacity:1;fill-rule:nonzero;stroke:none"
       transform="matrix(0.12386848,0,0,-0.12386848,80.191282,19.854646)"
       clip-path="url(#clipPath25)" />
    <path
       id="path26"
       d="m 0,0 c -0.39,1.253 -1.72,1.953 -2.97,1.563 -1.26,-0.39 -1.96,-1.722 -1.57,-2.975 0.73,-2.341 1.63,-4.654 2.68,-6.874 0.41,-0.859 1.26,-1.362 2.15,-1.362 0.34,0 0.69,0.073 1.01,0.228 1.19,0.56 1.7,1.977 1.14,3.163 C 1.48,-4.236 0.66,-2.131 0,0"
       style="fill:#000000;fill-opacity:1;fill-rule:nonzero;stroke:none"
       transform="matrix(0.12386848,0,0,-0.12386848,79.308112,18.102156)"
       clip-path="url(#clipPath27)" />
    <path
       id="path28"
       d="m 0,0 0.1,0.003 c 0.91,0.042 1.6,0.738 1.64,1.655 0.01,0.32 0.01,0.641 0.01,0.951 v 0.788 c 0,0.28 0,0.56 -0.01,0.84 C 1.72,5.196 1.03,5.897 0.07,5.942 -0.88,5.986 -1.62,5.332 -1.71,4.386 -1.78,3.557 -1.77,2.673 -1.69,1.518 -1.62,0.639 -0.9,0 0,0"
       style="fill:#000000;fill-opacity:1;fill-rule:nonzero;stroke:none"
       transform="matrix(0.12386848,0,0,-0.12386848,88.372802,10.030886)"
       clip-path="url(#clipPath29)" />
    <path
       id="path30"
       d="m 0,0 c 0,-2.855 -0.26,-5.651 -0.73,-8.371 l -1.2,-1.198 c -0.9,-0.9 -2.1,-1.395 -3.37,-1.395 -1.27,0 -2.47,0.495 -3.37,1.395 l -3.66,3.668 c -1.8,1.797 -4.19,2.787 -6.73,2.787 -2.55,0 -4.93,-0.99 -6.73,-2.787 l -4.09,-4.089 c -1.86,-1.857 -4.88,-1.857 -6.74,0 l -3.04,3.043 c 1.09,0.636 2.08,1.415 2.97,2.336 4.45,4.656 4.39,11.267 4.37,12.025 v 4.561 H 0 Z m -8.13,-26.841 c -0.19,0.139 -0.37,0.288 -0.54,0.456 l -3.66,3.668 c -1.8,1.798 -4.19,2.788 -6.73,2.788 -2.55,0 -4.93,-0.99 -6.73,-2.788 l -4.09,-4.089 c -0.9,-0.9 -2.1,-1.395 -3.37,-1.395 -1.27,0 -2.47,0.495 -3.37,1.395 l -4.35,4.351 c -1.45,1.45 -3.25,2.331 -5.14,2.648 v 10.871 c 0.51,0.052 1,0.121 1.48,0.209 0.1,-0.087 0.2,-0.176 0.3,-0.272 l 4.35,-4.352 c 3.71,-3.71 9.75,-3.71 13.46,0 l 4.09,4.09 c 0.9,0.899 2.09,1.395 3.37,1.395 1.27,0 2.46,-0.496 3.36,-1.395 l 3.67,-3.669 c 1.8,-1.797 4.19,-2.787 6.73,-2.787 0.97,0 1.92,0.145 2.82,0.423 -1.38,-4.12 -3.28,-7.999 -5.65,-11.547 z M -46.11,-48.424 V -24.7 c 0.65,-0.229 1.26,-0.597 1.78,-1.115 l 4.35,-4.352 c 1.8,-1.797 4.19,-2.787 6.73,-2.787 2.54,0 4.93,0.99 6.73,2.787 l 4.09,4.09 c 0.9,0.899 2.09,1.395 3.37,1.395 1.27,0 2.46,-0.496 3.36,-1.395 l 3.67,-3.669 c 0.34,-0.335 0.7,-0.643 1.07,-0.921 -8.43,-10.294 -21,-17.071 -35.15,-17.757 z m -26.59,18.64 c 9,0.461 16.17,7.925 16.17,17.033 0,2.109 -0.38,4.13 -1.09,5.997 1.92,-1.187 4.18,-1.917 6.76,-2.182 v -39.482 c -7.7,0.375 -15.18,2.563 -21.84,6.406 z m -13.19,17.033 c 0,6.784 5.52,12.303 12.31,12.303 6.78,0 12.3,-5.519 12.3,-12.303 0,-6.487 -5.05,-11.813 -11.42,-12.268 v 0.564 l 6.23,6.229 c 0.93,0.928 0.93,2.433 0,3.361 -0.93,0.928 -2.43,0.928 -3.36,0 l -2.87,-2.868 v 8.043 c 0,1.312 -1.06,2.376 -2.38,2.376 -1.31,0 -2.37,-1.064 -2.37,-2.376 v -14.737 c -4.9,1.625 -8.44,6.243 -8.44,11.676 z m 38.77,29.46 c -0.93,0.928 -2.44,0.928 -3.36,0 l -9.54,-9.541 v 16.798 h 23.07 V 7.375 l 0.01,-0.093 c 0,-0.012 0,-0.284 -0.02,-0.736 z m 0.65,-21.03 c -0.11,-0.012 -0.22,-0.024 -0.33,-0.034 l -0.18,-0.015 c -0.15,-0.012 -0.3,-0.023 -0.46,-0.031 l -0.06,-0.003 c -0.18,-0.009 -0.37,-0.015 -0.56,-0.019 -0.11,-0.001 -0.21,-0.005 -0.32,-0.005 h -0.21 c -0.21,0 -0.41,0.004 -0.61,0.011 -0.14,0.004 -0.28,0.012 -0.41,0.02 l -0.17,0.009 c -0.17,0.012 -0.34,0.026 -0.51,0.043 l -0.03,0.003 c -0.18,0.019 -0.36,0.04 -0.54,0.064 -2.53,0.345 -4.56,1.295 -6.05,2.841 -0.88,0.918 -1.52,1.974 -1.97,3.027 L -48.8,11.668 -38.29,1.151 c -0.43,-0.905 -1.01,-1.798 -1.77,-2.588 -0.98,-1.023 -2.21,-1.784 -3.66,-2.284 -0.76,-0.265 -1.59,-0.453 -2.49,-0.569 z m 19.75,21.918 c -0.02,-0.289 -0.06,-0.58 -0.1,-0.869 h -5.5 v 8.342 c 0.97,-0.137 1.79,-0.423 2.51,-0.88 2.24,-1.438 3.26,-3.595 3.09,-6.593 z m -39.56,32.279 c -0.71,0 -1.38,-0.318 -1.83,-0.866 -0.45,-0.548 -0.63,-1.27 -0.5,-1.966 l 3.96,-20.281 V 16.728 h -5.8 v 9.624 c 0,2.555 -2.07,4.627 -4.63,4.627 -2.55,0 -4.62,-2.072 -4.62,-4.627 v -9.624 h -8.61 l 5.92,30.316 c 0.14,0.696 -0.04,1.418 -0.49,1.966 -0.46,0.548 -1.13,0.866 -1.84,0.866 h -3.08 v 9.297 c 0,1.312 -1.07,2.376 -2.38,2.376 -1.31,0 -2.38,-1.064 -2.38,-2.376 V 47.499 c 0,-1.312 1.07,-2.376 2.38,-2.376 h 2.58 l -5.55,-28.395 h -3.82 v 48.653 c 0,1.456 1.19,2.64 2.64,2.64 h 43.47 V 36.906 c 0,-0.79 0.39,-1.528 1.05,-1.97 0.65,-0.442 1.48,-0.53 2.22,-0.234 l 9.93,4.01 21.7,-12.343 c -0.54,-1.412 -1.22,-2.602 -2.08,-3.608 -1.38,-1.623 -3.15,-2.816 -5.26,-3.546 l -0.02,-0.007 -0.01,0.008 c -0.21,2.921 -1.44,5.317 -3.64,7.122 -1.52,1.251 -3.32,1.989 -5.35,2.22 v 0.033 h -0.28 c -0.37,0.032 -0.74,0.054 -1.12,0.054 h -0.01 c -1.57,-0.001 -3.14,0 -4.71,0 -1.57,0.001 -3.15,0.002 -4.72,0 -0.19,0 -0.39,-0.018 -0.61,-0.054 h -16.39 l -3.23,16.532 h 2.57 c 1.32,0 2.38,1.064 2.38,2.376 v 11.674 c 0,1.312 -1.06,2.376 -2.38,2.376 -1.31,0 -2.37,-1.064 -2.37,-2.376 v -9.297 z m 31.25,2.362 0.02,0.416 c 0.02,0.432 0.04,0.879 0.04,1.322 0.02,1.644 0.68,3.121 1.98,4.392 1.97,1.925 4.35,2.548 7.08,1.852 0.87,-0.224 1.64,-0.678 2.45,-1.16 0.17,-0.102 0.34,-0.204 0.52,-0.303 0.86,-0.499 1.81,-0.266 2.34,0.578 0.48,0.746 0.24,1.793 -0.51,2.285 -0.4,0.258 -0.81,0.494 -1.21,0.722 -0.15,0.086 -0.3,0.173 -0.45,0.261 -0.39,0.221 -0.65,0.428 -0.85,0.67 -0.44,0.531 -0.44,1.466 0,2 0.59,0.716 1.36,0.871 2.16,0.439 0.55,-0.297 1.11,-0.621 1.64,-0.935 0.22,-0.128 0.44,-0.257 0.66,-0.384 l 1.55,-0.89 c 1.35,-0.777 2.69,-1.554 4.04,-2.341 0.99,-0.583 0.93,-1.733 0.56,-2.363 -0.19,-0.333 -0.52,-0.574 -0.92,-0.68 -0.47,-0.124 -0.99,-0.05 -1.43,0.205 l -0.21,0.124 c -0.25,0.151 -0.51,0.302 -0.77,0.445 -0.55,0.299 -1.1,0.326 -1.61,0.077 -0.56,-0.277 -0.92,-0.805 -0.96,-1.413 -0.04,-0.613 0.24,-1.192 0.77,-1.549 0.9,-0.606 1.85,-1.132 2.77,-1.642 0.28,-0.15 0.55,-0.301 0.82,-0.453 0.18,-0.1 0.19,-0.147 0.19,-0.305 -0.01,-0.577 -0.01,-1.154 0,-1.73 v -1.373 c 0,-0.6 0,-1.221 0.01,-1.833 0,-0.067 0,-0.072 -0.11,-0.134 l -0.44,-0.254 c -2.08,-1.204 -4.17,-2.407 -6.25,-3.623 -0.21,-0.126 -0.33,-0.127 -0.55,-0.002 -3.65,2.127 -7.32,4.253 -10.91,6.318 -0.17,0.098 -0.34,0.2 -0.51,0.303 -0.58,0.358 -1.19,0.728 -1.91,0.91 z M -10.9,50.312 V 50.8 c 0,0.332 0,0.664 0,0.995 1.81,-1.024 2.67,-2.668 2.44,-4.667 -0.7,0.426 -1.45,0.873 -2.41,1.431 l -0.03,0.02 -0.01,0.078 c 0.01,0.405 0.01,0.811 0.01,1.216 z m 8.26,22.462 h -8.03 c -1.31,0 -2.37,-1.064 -2.37,-2.377 0,-1.312 1.06,-2.376 2.37,-2.376 h 8.03 c 1.45,0 2.64,-1.184 2.64,-2.64 V 16.728 h -20.35 c 1.75,0.823 3.3,1.985 4.62,3.489 3.02,3.445 4.31,7.425 3.83,11.831 -0.15,1.315 -0.5,2.637 -1.06,3.926 -0.35,0.829 -1.27,1.261 -2.09,0.985 -0.82,-0.28 -1.3,-1.145 -1.12,-2.013 0.08,-0.351 0.19,-0.688 0.3,-1.014 0.15,-0.42 0.28,-0.816 0.34,-1.231 l 0.1,-0.746 c 0.02,-0.15 0.04,-0.301 0.06,-0.453 l -20.94,11.909 c -0.13,0.077 -0.27,0.137 -0.42,0.185 -0.46,0.268 -0.93,0.541 -1.38,0.832 -0.96,0.62 -1.4,1.813 -1.07,2.9 0.26,0.83 1.15,1.548 2.04,1.635 0.72,0.071 1.38,-0.087 2.08,-0.495 3.38,-1.98 6.83,-3.976 10.17,-5.907 1.39,-0.806 2.78,-1.612 4.18,-2.419 0.56,-0.325 1.11,-0.742 1.73,-1.314 0.52,-0.473 1.14,-0.599 1.81,-0.363 0.6,0.214 0.98,0.707 1.11,1.426 0.12,0.679 -0.36,1.179 -0.59,1.419 -0.34,0.36 -0.75,0.7 -1.29,1.071 l -0.15,0.106 0.28,0.161 c 0.49,0.286 0.98,0.566 1.46,0.846 0.29,0.168 0.58,0.335 0.87,0.502 0.8,0.456 1.62,0.928 2.41,1.417 0.31,0.188 0.52,0.183 0.85,-0.02 0.96,-0.59 1.95,-1.175 2.9,-1.739 l 0.84,-0.501 c 0.9,-0.533 1.87,-0.323 2.37,0.511 0.94,1.561 1.33,2.98 1.19,4.337 -0.29,2.963 -1.64,5.177 -4.01,6.578 -0.72,0.425 -1.44,0.849 -2.16,1.269 1.46,1.31 2.04,3.007 1.67,4.918 -0.27,1.411 -1.1,2.562 -2.4,3.33 -1.62,0.951 -3.27,1.902 -4.86,2.822 l -1.87,1.076 c -0.2,0.116 -0.4,0.231 -0.6,0.347 -0.21,0.119 -0.42,0.238 -0.63,0.36 -2.39,1.379 -5.48,0.549 -6.9,-1.851 -0.56,-0.938 -0.81,-1.896 -0.74,-2.852 -1.88,-0.003 -3.63,-0.393 -5.17,-1.18 -3.27,-1.678 -5.24,-4.383 -5.83,-8.042 -0.13,-0.769 -0.17,-1.577 -0.12,-2.469 v -0.104 l -0.09,-0.036 c -2.62,-0.802 -4.35,-3.466 -4.04,-6.198 0.16,-1.387 0.7,-2.56 1.62,-3.503 l -5.06,-2.039 v 27.594 h 6.32 c 1.31,0 2.38,1.064 2.38,2.376 0,1.313 -1.07,2.377 -2.38,2.377 h -54.54 c -4.07,0 -7.39,-3.316 -7.39,-7.393 V 0 c 0,-2.637 0.2,-5.288 0.58,-7.879 0.17,-1.18 1.19,-2.028 2.35,-2.028 0.11,0 0.23,0.009 0.35,0.027 1.3,0.192 2.19,1.401 2,2.699 -0.35,2.36 -0.53,4.777 -0.53,7.181 v 11.975 h 32.32 V 7.414 c -0.01,-0.418 -0.03,-2.611 0.69,-5.274 0.02,-0.353 0.11,-0.703 0.29,-1.022 -2.8,2.003 -6.22,3.187 -9.91,3.187 -9.41,0 -17.06,-7.652 -17.06,-17.056 0,-8.074 5.64,-14.85 13.19,-16.608 v -15.332 l 1.13,-0.695 c 8.36,-5.135 17.98,-7.849 27.84,-7.849 17.13,0 32.4,8.142 42.15,20.759 1.36,1.767 2.62,3.623 3.76,5.555 2.91,4.957 5.05,10.424 6.24,16.233 0.42,2.034 0.71,4.111 0.89,6.222 0.12,1.473 0.19,2.961 0.19,4.466 v 65.381 c 0,4.077 -3.31,7.393 -7.39,7.393"
       style="fill:#000000;fill-opacity:1;fill-rule:nonzero;stroke:none"
       transform="matrix(0.12386848,0,0,-0.12386848,91.049602,16.316226)"
       clip-path="url(#clipPath31)" />
    <path
       id="path40"
       d="M 0,0 V -147.665"
       style="fill:#ffffff;fill-opacity:1;fill-rule:nonzero;stroke:none"
       transform="matrix(0.12386848,0,0,-0.12386848,68.519162,3.9109168)"
       clip-path="url(#clipPath41)" />
    <path
       id="path42"
       d="m 0,0 v -147.665 c 0,-1.81 1.47,-3.276 3.28,-3.276 1.81,0 3.27,1.466 3.27,3.276 V 0 C 6.55,1.81 5.09,3.276 3.28,3.276 1.47,3.276 0,1.81 0,0"
       style="fill:#000000;fill-opacity:1;fill-rule:nonzero;stroke:none"
       transform="matrix(0.12386848,0,0,-0.12386848,68.112872,3.9109168)"
       clip-path="url(#clipPath43)" />
    <path
       id="path44"
       d="m 0,0 c 0,-6.364 -5.16,-11.524 -11.52,-11.524 -6.37,0 -11.53,5.16 -11.53,11.524 0,6.365 5.16,11.525 11.53,11.525 C -5.16,11.525 0,6.365 0,0"
       style="fill:#ffffff;fill-opacity:1;fill-rule:nonzero;stroke:none"
       transform="matrix(0.12386848,0,0,-0.12386848,69.946122,13.056496)"
       clip-path="url(#clipPath45)" />
    <path
       id="path46"
       d="m 0,0 h -3.27 c 0,-2.288 -0.92,-4.329 -2.42,-5.832 -1.5,-1.498 -3.54,-2.414 -5.83,-2.416 -2.29,0.002 -4.33,0.918 -5.83,2.416 -1.5,1.503 -2.42,3.544 -2.42,5.832 0,2.289 0.92,4.33 2.42,5.833 1.5,1.498 3.54,2.414 5.83,2.416 C -9.23,8.247 -7.19,7.331 -5.69,5.833 -4.19,4.33 -3.27,2.289 -3.27,0 h 6.55 c 0,4.077 -1.66,7.798 -4.34,10.466 -2.66,2.673 -6.38,4.337 -10.46,4.335 -4.08,0.002 -7.8,-1.662 -10.47,-4.335 C -24.66,7.798 -26.32,4.077 -26.32,0 c 0,-4.076 1.66,-7.797 4.33,-10.465 2.67,-2.673 6.39,-4.337 10.47,-4.335 4.08,-0.002 7.8,1.662 10.46,4.335 C 1.62,-7.797 3.28,-4.076 3.28,0 H 0"
       style="fill:#000000;fill-opacity:1;fill-rule:nonzero;stroke:none"
       transform="matrix(0.12386848,0,0,-0.12386848,69.946122,13.056496)"
       clip-path="url(#clipPath47)" />
    <g
       id="g1"
       transform="matrix(0.26881149,0,0,0.26881149,3.0902726,58.877376)">
      <path
         d="m 65.379844,-74.391109 c -4.441406,-4.207032 -10.992188,-6.316407 -19.640625,-6.316407 H 9.1298438 V -4.84375e-4 H 24.329063 V -29.473141 h 19.066406 c 9.117187,0 16.136719,-2.226562 21.175781,-6.785156 5.027344,-4.441406 7.59375,-11.109375 7.59375,-19.886719 0,-7.957031 -2.332031,-14.039062 -6.785156,-18.246093 z M 41.168906,-40.699703 H 24.329063 v -28.078125 h 16.839843 c 5.144532,0 8.894532,1.054687 11.460938,3.164062 2.578125,2.097657 3.867187,5.261719 3.867187,9.585938 0,4.558594 -1.40625,8.308594 -3.984375,11.109375 -2.566406,2.8125 -6.421875,4.21875 -11.34375,4.21875 z M 103.665,-1.7582969 101.09859,-11.695797 c -1.874996,1.171875 -3.749996,1.640625 -5.49609,1.640625 -3.75,0 -5.507812,-1.992187 -5.507812,-5.964844 V -82.465328 H 75.598594 v 68.894531 c 0,5.2617189 1.171875,9.1289064 3.503906,11.5781251 2.34375,2.34375003 6.082031,3.6328125 11.109375,3.6328125 2.8125,0 5.625,-0.3515625 8.191406,-1.05468747 2.578129,-0.703125 4.324219,-1.5234375 5.261719,-2.22656253 z m 64.49707,-0.234375 -2.8125,-8.8828121 c -1.17187,0.703125 -2.21484,1.0546871 -3.03516,1.0546871 -1.28906,0 -2.22656,-0.5859371 -2.8125,-1.7578121 -0.70312,-1.171875 -0.9375,-2.8125 -0.9375,-4.910157 v -23.167968 c 0,-6.65625 -2.21484,-11.8125 -6.66796,-15.433594 -4.44141,-3.738281 -10.64063,-5.496094 -18.70313,-5.496094 -7.72266,0 -13.92187,1.640625 -18.83203,4.910156 -4.92188,3.28125 -7.72266,7.839844 -8.66016,13.570313 l 12.63282,2.917969 c 0.9375,-3.503907 2.34375,-6.082032 4.4414,-7.945313 2.10938,-1.875 5.02735,-2.8125 8.77735,-2.8125 8.29687,0 12.39843,3.75 12.39843,10.992188 v 4.335937 c -3.75,-0.585937 -7.72265,-0.9375 -11.92968,-0.9375 -8.77735,0 -15.79688,1.640625 -21.0586,4.910156 -5.26172,3.269532 -7.95703,8.191407 -7.95703,14.625 0,5.261719 1.875,9.4687504 5.50781,12.7500004 3.6211,3.269531225 8.64844,4.9101562 14.96485,4.9101562 5.84765,0 10.52343,-1.40624997 13.92187,-4.1015625 3.50391,-2.8007812 5.84766,-6.890625 7.25391,-12.5156251 h 2.44922 c -0.23438,1.523438 -0.46875,3.164063 -0.46875,4.921875 0,3.8554689 1.05468,6.7851564 3.04687,8.7656251 1.99219,1.87500003 4.79297,2.9296875 8.41406,2.9296875 1.875,0 3.75,-0.46875 5.625,-1.17187497 1.86329,-0.703125 3.38672,-1.52343753 4.32422,-2.34375003 z M 143.71676,-26.672359 c -1.17188,11.695312 -6.78516,17.6601559 -16.72266,17.6601559 -2.69531,0 -4.80469,-0.6914063 -6.43359,-2.0976559 -1.64063,-1.40625 -2.46094,-3.398438 -2.46094,-5.730469 0,-3.515625 1.52344,-6.082031 4.55859,-7.722656 3.04688,-1.757813 7.48829,-2.578125 13.10157,-2.578125 2.8125,0 5.49609,0.117187 7.95703,0.46875 z m 76.88672,-29.003907 c -3.28125,-3.269531 -7.83985,-5.027343 -13.45313,-5.027343 -10.875,0 -18.01172,5.613281 -21.52734,16.722656 h -2.21485 l -1.52343,-15.199219 H 169.95504 V -4.84375e-4 h 14.49609 V -21.527828 c 0,-9.351563 1.40625,-16.019531 4.21875,-20.226563 2.80078,-4.21875 6.66797,-6.316406 11.46094,-6.316406 3.50391,0 6.19922,1.054688 8.07422,3.152344 1.86328,2.109375 2.68359,5.144531 2.68359,8.894531 V -4.84375e-4 h 14.50782 V -41.637203 c 0,-6.082031 -1.64063,-10.757813 -4.91016,-14.039063 z m 13.83398,-14.859375 c 1.51172,1.40625 3.85547,2.109375 7.01953,2.109375 3.03516,0 5.26172,-0.703125 6.78516,-2.109375 1.51172,-1.394531 2.33203,-3.269531 2.33203,-5.730468 0,-2.214844 -0.82031,-4.089844 -2.33203,-5.496094 -1.52344,-1.394531 -3.75,-2.097656 -6.78516,-2.097656 -3.16406,0 -5.50781,0.703125 -7.01953,2.097656 -1.52344,1.40625 -2.22656,3.28125 -2.22656,5.613281 0,2.34375 0.70312,4.335938 2.22656,5.730469 z M 248.58199,0.11670313 V -59.062984 H 234.0859 V 0.11670313 Z m 53.2793,-58.94531213 h -25.72266 v -4.335938 c 0,-3.269531 1.16016,-5.847656 3.6211,-7.710937 2.34375,-1.757813 5.96484,-2.695313 10.75781,-2.695313 3.51562,0 6.55078,0.585938 9.36328,1.757813 2.80078,1.160156 4.91016,2.214843 6.31641,3.269531 l 8.0625,-7.839844 c -2.09766,-1.863281 -5.4961,-3.621094 -9.9375,-5.261719 -4.44141,-1.511718 -9.58594,-2.332031 -15.19922,-2.332031 -9.12891,0 -15.91406,1.863281 -20.58985,5.378906 -4.67578,3.621094 -6.90234,8.882813 -6.90234,15.785157 v 4.101562 h -8.54297 v 10.523438 h 8.54297 V 0.11670313 h 14.50781 V -48.187984 h 25.72266 V 0.11670313 H 316.3691 V -59.062984 Z m 28.11914,52.5117184 c 5.37891,5.2617187 12.63281,7.8398437 21.76172,7.8398437 7.2539,0 13.21875,-1.64062497 17.77734,-4.9101562 4.44141,-3.28125 7.3711,-7.7226559 8.64844,-13.3359379 l -11.8125,-2.929687 c -1.16016,3.046875 -2.91797,5.496094 -5.26172,7.253906 -2.44922,1.875 -5.26172,2.6953126 -8.53125,2.6953126 -4.92187,0 -8.66016,-1.6406246 -11.47266,-5.1562496 -2.80078,-3.386719 -4.08984,-8.296875 -4.08984,-14.613282 0,-6.550781 1.40625,-11.695312 4.20703,-15.210937 2.8125,-3.503906 6.66797,-5.261719 11.35547,-5.261719 7.71094,0 12.04688,3.632813 13.08984,10.757813 l 11.94141,-2.917969 c -0.70312,-5.847656 -3.16406,-10.40625 -7.48828,-13.6875 -4.45313,-3.269531 -10.41797,-4.910156 -18.01172,-4.910156 -5.84766,0 -11.12109,1.289062 -15.5625,3.621093 -4.55859,2.34375 -8.19141,5.847657 -10.75781,10.535157 -2.57813,4.675781 -3.85547,10.40625 -3.85547,16.957031 0,10.289062 2.68359,18.128906 8.0625,23.2734374 z m 114.99316,4.3242187 -2.8125,-8.8828121 c -1.17187,0.703125 -2.21484,1.0546871 -3.03515,1.0546871 -1.28906,0 -2.22656,-0.5859371 -2.8125,-1.7578121 -0.70313,-1.171875 -0.9375,-2.8125 -0.9375,-4.910157 v -23.167968 c 0,-6.65625 -2.21485,-11.8125 -6.66797,-15.433594 -4.44141,-3.738281 -10.64063,-5.496094 -18.70313,-5.496094 -7.72265,0 -13.92187,1.640625 -18.83203,4.910156 -4.92187,3.28125 -7.72265,7.839844 -8.66015,13.570313 l 12.63281,2.917969 c 0.9375,-3.503907 2.34375,-6.082032 4.44141,-7.945313 2.10937,-1.875 5.02734,-2.8125 8.77734,-2.8125 8.29687,0 12.39844,3.75 12.39844,10.992188 v 4.335937 c -3.75,-0.585937 -7.72266,-0.9375 -11.92969,-0.9375 -8.77734,0 -15.79688,1.640625 -21.05859,4.910156 -5.26172,3.269532 -7.95704,8.191407 -7.95704,14.625 0,5.261719 1.875,9.4687504 5.50782,12.7500004 3.62109,3.269531225 8.64843,4.9101562 14.96484,4.9101562 5.84766,0 10.52344,-1.40624997 13.92188,-4.1015625 3.5039,-2.8007812 5.84765,-6.890625 7.2539,-12.5156251 h 2.44922 c -0.23437,1.523438 -0.46875,3.164063 -0.46875,4.921875 0,3.8554689 1.05469,6.7851564 3.04688,8.7656251 1.99218,1.87500003 4.79296,2.9296875 8.41406,2.9296875 1.875,0 3.75,-0.46875 5.625,-1.17187497 1.86328,-0.703125 3.38672,-1.52343753 4.32422,-2.34375003 z M 420.52828,-26.672359 c -1.17187,11.695312 -6.78515,17.6601559 -16.72265,17.6601559 -2.69532,0 -4.80469,-0.6914063 -6.4336,-2.0976559 -1.64062,-1.40625 -2.46094,-3.398438 -2.46094,-5.730469 0,-3.515625 1.52344,-6.082031 4.5586,-7.722656 3.04687,-1.757813 7.48828,-2.578125 13.10156,-2.578125 2.8125,0 5.49609,0.117187 7.95703,0.46875 z m 29.42578,20.3554684 c 5.37891,5.2617187 12.63282,7.8398437 21.76172,7.8398437 7.25391,0 13.21875,-1.64062497 17.77735,-4.9101562 4.4414,-3.28125 7.37109,-7.7226559 8.64843,-13.3359379 l -11.8125,-2.929687 c -1.16015,3.046875 -2.91797,5.496094 -5.26172,7.253906 -2.44921,1.875 -5.26171,2.6953126 -8.53125,2.6953126 -4.92187,0 -8.66015,-1.6406246 -11.47265,-5.1562496 -2.80078,-3.386719 -4.08985,-8.296875 -4.08985,-14.613282 0,-6.550781 1.40625,-11.695312 4.20704,-15.210937 2.8125,-3.503906 6.66796,-5.261719 11.35546,-5.261719 7.71094,0 12.04688,3.632813 13.08985,10.757813 l 11.9414,-2.917969 c -0.70312,-5.847656 -3.16406,-10.40625 -7.48828,-13.6875 -4.45312,-3.269531 -10.41797,-4.910156 -18.01172,-4.910156 -5.84765,0 -11.12109,1.289062 -15.5625,3.621093 -4.55859,2.34375 -8.1914,5.847657 -10.75781,10.535157 -2.57812,4.675781 -3.85547,10.40625 -3.85547,16.957031 0,10.289062 2.6836,18.128906 8.0625,23.2734374 z m 53.02735,-64.2187504 c 1.51172,1.40625 3.85547,2.109375 7.01953,2.109375 3.03515,0 5.26172,-0.703125 6.78515,-2.109375 1.51172,-1.394531 2.33203,-3.269531 2.33203,-5.730468 0,-2.214844 -0.82031,-4.089844 -2.33203,-5.496094 -1.52343,-1.394531 -3.75,-2.097656 -6.78515,-2.097656 -3.16406,0 -5.50781,0.703125 -7.01953,2.097656 -1.52344,1.40625 -2.22657,3.28125 -2.22657,5.613281 0,2.34375 0.70313,4.335938 2.22657,5.730469 z M 517.12594,0.11670313 V -59.062984 h -14.4961 V 0.11670313 Z m 13.13672,-6.43359373 c 5.61328,5.2617187 12.98437,7.8398437 22.34765,7.8398437 9.46875,0 16.95703,-2.6953125 22.45313,-8.0742187 5.61328,-5.3789064 8.30859,-13.3359374 8.30859,-23.7421874 0,-6.433594 -1.28906,-11.929688 -3.98437,-16.488281 -2.6836,-4.570313 -6.4336,-8.074219 -11.10938,-10.417969 -4.67578,-2.332031 -9.9375,-3.503906 -15.78516,-3.503906 -5.96484,0 -11.23828,1.289062 -15.91406,3.621093 -4.67578,2.460938 -8.30859,6.082032 -10.875,10.886719 -2.57812,4.792969 -3.97265,10.640625 -3.97265,17.425781 0,9.820313 2.80078,17.308594 8.41406,22.4531254 z m 33.92578,-8.6601564 c -2.8125,3.515625 -6.66797,5.2734376 -11.69532,5.2734376 -4.92187,0 -8.66015,-1.7578126 -11.47265,-5.2734376 -2.80078,-3.503906 -4.20703,-8.414062 -4.20703,-14.730469 0,-6.550781 1.40625,-11.460937 4.20703,-14.976562 2.8125,-3.503906 6.66797,-5.261719 11.47265,-5.261719 4.91016,0 8.88282,1.757813 11.69532,5.261719 2.80078,3.515625 4.20703,8.425781 4.20703,14.976562 0,6.316407 -1.40625,11.226563 -4.20703,14.730469 z M 557.52047,-66.902828 573.54,-87.258297 h -16.72266 l -10.40625,20.355469 z m 82.14844,11.226562 c -3.28125,-3.269531 -7.83985,-5.027343 -13.45313,-5.027343 -10.875,0 -18.01172,5.613281 -21.52734,16.722656 h -2.21485 l -1.52343,-15.199219 H 589.02047 V -4.84375e-4 h 14.49609 V -21.527828 c 0,-9.351563 1.40625,-16.019531 4.21875,-20.226563 2.80078,-4.21875 6.66797,-6.316406 11.46094,-6.316406 3.50391,0 6.19922,1.054688 8.07422,3.152344 1.86328,2.109375 2.68359,5.144531 2.68359,8.894531 V -4.84375e-4 h 14.50781 V -41.637203 c 0,-6.082031 -1.64062,-10.757813 -4.91015,-14.039063 z m 0,0"
         style="fill:#222221;fill-opacity:1;fill-rule:nonzero;stroke:none"
         aria-label="Planifcacin"
         transform="matrix(0.35277776,0,0,0.35277776,-8.8167372,-143.76942)"
         clip-path="url(#clipPath54)"
         id="path8-4" />
      <path
         d="m 9.7153516,-3.4223516 c 3.7734374,2.84765629 8.4140624,4.27734379 13.8398434,4.27734379 3.503907,0 6.644532,-0.57421875 9.503907,-1.8515625 2.847656,-1.21874999 5.0625,-2.99999999 6.703125,-5.28515629 1.640625,-2.2851562 2.496093,-5.0039064 2.496093,-8.0625004 0,-3.433593 -0.855468,-6.070312 -2.425781,-8.003906 -1.570312,-1.921875 -3.632812,-3.28125 -6.058594,-4.136719 -2.4375,-0.855468 -5.425781,-1.570312 -8.929687,-2.003906 -3.070313,-0.421875 -5.566406,-0.855469 -7.570313,-1.347656 -1.992187,-0.503906 -3.632812,-1.289063 -4.921875,-2.355469 -1.289062,-1.148437 -1.933593,-2.648437 -1.933593,-4.5 0,-2.355469 1.007812,-4.148437 3.140625,-5.425781 2.074218,-1.289063 4.792968,-1.933594 8.074218,-1.933594 4.429688,0 7.710938,0.855469 9.703125,2.71875 2.003907,1.851563 3.292969,4.570313 3.925782,8.273438 l 5.859375,-1.78125 c -0.996094,-10.136719 -7.5,-15.128907 -19.488282,-15.128907 -3.714843,0 -6.996093,0.5625 -9.785156,1.710938 -2.7773437,1.136719 -4.9218749,2.777344 -6.4218749,4.921875 -1.5,2.144531 -2.2148438,4.640625 -2.2148438,7.5 0,4.429687 1.5703125,7.640625 4.8515625,9.632812 3.2929692,2.003907 7.5703122,3.28125 12.9257812,3.996094 3.28125,0.363281 5.859375,0.785156 7.78125,1.289063 1.851563,0.503906 3.421875,1.289062 4.570313,2.425781 1.136718,1.148437 1.78125,2.71875 1.78125,4.78125 0,2.648437 -1.066407,4.7109374 -3.210938,6.2109374 -2.144531,1.4296875 -5.0625,2.2148438 -8.636719,2.2148438 -3.855468,0 -7.066406,-1.1367188 -9.632812,-3.3515625 C 11.063008,-10.922352 9.4223828,-14.062977 8.7075391,-18.05907 l -5.8476563,2.777343 c 0.7851563,5.074219 3.0703125,9.0703129 6.8554688,11.9296879 z M 73.430195,-31.770008 c -2.859375,-3.140625 -6.785156,-4.78125 -11.636718,-4.78125 -3.574219,0 -6.714844,0.855469 -9.351563,2.496094 -2.648437,1.710937 -4.640625,3.996094 -6,6.925781 -1.429687,2.929688 -2.074219,6.28125 -2.074219,10.066406 0,5.636719 1.429688,10.0664067 4.429688,13.2070317 3,3.14062499 7.207031,4.71093749 12.703125,4.71093749 4.148437,0 7.5,-0.8554687525 10.136719,-2.70703129 2.648437,-1.7929687 4.429687,-4.2890625 5.285156,-7.4296875 l -5.285156,-1.7109374 c -0.855469,1.9921874 -1.992188,3.5624999 -3.5625,4.5703124 -1.570313,1.0664063 -3.644532,1.5703125 -6.140625,1.5703125 -2.859375,0 -5.214844,-0.8554687 -7.066407,-2.71875 -1.863281,-1.78125 -3,-4.3476559 -3.28125,-7.7109379 h 26.050782 c 0.07031,-0.714843 0.140625,-1.851562 0.140625,-3.351562 0,-5.566406 -1.5,-9.925781 -4.347657,-13.136719 z m -18.421875,3.574219 c 1.78125,-1.863281 3.996094,-2.859375 6.714844,-2.859375 2.917969,0 5.203125,0.996094 6.773438,2.859375 1.570312,1.921875 2.355468,4.570312 2.507812,7.921875 H 51.656758 c 0.421875,-3.433594 1.5,-6.070313 3.351562,-7.921875 z m 28.942383,24.3398437 c 3.152344,3.14062499 7.429688,4.71093749 12.785156,4.71093749 3.996091,0 7.277341,-0.8554687525 9.855471,-2.70703129 2.5664,-1.7929687 4.27734,-4.2890625 5.13281,-7.4296875 l -5.28516,-1.7109374 c -0.85546,1.9921874 -2.0625,3.4921874 -3.63281,4.4999999 -1.57031,1.0664063 -3.503904,1.5703125 -5.648436,1.5703125 -3.28125,0 -5.917968,-1.078125 -7.851562,-3.3632812 -1.992188,-2.2851562 -2.917969,-5.4257812 -2.917969,-9.4921872 0,-4.277344 0.996094,-7.570313 2.988281,-9.855469 2.003907,-2.285156 4.570313,-3.421875 7.710938,-3.421875 5.074218,0 8.003908,2.074219 8.859378,6.140625 l 5.42578,-1.710938 c -0.50391,-3.210937 -2.00391,-5.648437 -4.5,-7.359375 -2.56641,-1.710937 -5.85938,-2.566406 -9.996096,-2.566406 -3.421875,0 -6.421875,0.714844 -9.140625,2.144531 -2.707031,1.417969 -4.78125,3.5625 -6.28125,6.351563 -1.570312,2.859375 -2.285156,6.210937 -2.285156,10.207031 0,6.210938 1.570313,10.8515627 4.78125,13.9921877 z M 139.36867,-34.406727 c -1.71094,-1.429687 -3.78515,-2.144531 -6.35156,-2.144531 -3,0 -5.42578,1.136719 -7.20703,3.421875 -1.86328,2.285156 -3,5.144531 -3.4336,8.71875 h -1.34765 l -0.71485,-11.285156 h -5.57812 V -4.765625e-4 h 6.92578 V -10.992664 c 0,-3.996094 0.43359,-7.429688 1.28906,-10.277344 0.85547,-2.859375 2.14453,-5.003906 3.71485,-6.503906 1.57031,-1.429688 3.28125,-2.214844 5.28515,-2.214844 1.20703,0 2.35547,0.292969 3.35157,0.855469 0.99609,0.574219 1.78125,1.148437 2.21484,1.792969 z m 27.4541,2.636719 c -2.85937,-3.140625 -6.78515,-4.78125 -11.63672,-4.78125 -3.57421,0 -6.71484,0.855469 -9.35156,2.496094 -2.64844,1.710937 -4.64062,3.996094 -6,6.925781 -1.42969,2.929688 -2.07422,6.28125 -2.07422,10.066406 0,5.636719 1.42969,10.0664067 4.42969,13.2070317 3,3.14062499 7.20703,4.71093749 12.70313,4.71093749 4.14843,0 7.5,-0.8554687525 10.13671,-2.70703129 2.64844,-1.7929687 4.42969,-4.2890625 5.28516,-7.4296875 l -5.28516,-1.7109374 c -0.85546,1.9921874 -1.99218,3.5624999 -3.5625,4.5703124 -1.57031,1.0664063 -3.64453,1.5703125 -6.14062,1.5703125 -2.85938,0 -5.21484,-0.8554687 -7.06641,-2.71875 -1.86328,-1.78125 -3,-4.3476559 -3.28125,-7.7109379 h 26.05078 c 0.0703,-0.714843 0.14063,-1.851562 0.14063,-3.351562 0,-5.566406 -1.5,-9.925781 -4.34766,-13.136719 z m -18.42187,3.574219 c 1.78125,-1.863281 3.99609,-2.859375 6.71484,-2.859375 2.91797,0 5.20313,0.996094 6.77344,2.859375 1.57031,1.921875 2.35547,4.570312 2.50781,7.921875 h -19.34765 c 0.42187,-3.433594 1.5,-6.070313 3.35156,-7.921875 z m 50.20019,22.2656249 -3.14062,-4.0664062 c -1.06641,1.4296875 -2.21485,2.5664062 -3.42188,3.5742187 -1.14843,0.9960938 -2.57812,1.4296875 -4.14843,1.4296875 -3.42188,0 -5.13282,-1.5703125 -5.13282,-4.8632812 V -30.199695 h 13.62891 v -5.496094 h -13.62891 v -10.417969 h -4.21875 l -2.0625,10.417969 h -5.14453 v 5.496094 h 4.5 v 21.7031247 c 0,3 0.92578,5.2851562 2.70703,6.9257812 1.86328,1.64062504 4.5,2.42578129 8.00391,2.42578129 3,0 5.42578,-0.64453125 7.34766,-1.92187499 2.0039,-1.2890625 3.5039,-2.9296875 4.64062,-4.8632813 z m 38.78321,5.00390629 -1.64063,-4.28906249 c -0.78515,0.5039062 -1.42969,0.7148437 -2.0039,0.7148437 -0.85547,0 -1.41797,-0.3515625 -1.85157,-1.2070312 -0.42187,-0.8554688 -0.57422,-2.0039063 -0.57422,-3.5039063 V -24.270008 c 0,-3.855469 -1.34765,-6.925781 -3.99609,-9.070312 -2.63672,-2.144532 -6.21094,-3.210938 -10.64062,-3.210938 -4.41797,0 -7.99219,0.996094 -10.76954,2.859375 -2.85937,1.851563 -4.5,4.488281 -4.93359,7.921875 l 5.64844,1.710938 c 0.5625,-2.285157 1.64062,-4.066407 3.05859,-5.214844 1.42969,-1.136719 3.50391,-1.78125 6.07031,-1.78125 5.71875,0 8.63672,2.425781 8.63672,7.207031 v 2.929688 c -2.70703,-0.433594 -5.34375,-0.644532 -7.78125,-0.644532 -5.27343,0 -9.49218,1.007813 -12.63281,3 -3.14062,2.003907 -4.71094,4.921875 -4.71094,8.7773442 0,3.140625 1.06641,5.71875 3.35157,7.7109375 2.21484,2.00390624 5.28515,2.92968749 9.21093,2.92968749 3.50391,0 6.28125,-0.78515625 8.35547,-2.49609379 2.00391,-1.640625 3.42188,-4.21875 4.28906,-7.7109375 h 1.41797 c -0.21093,0.9960938 -0.28125,2.0039063 -0.28125,3.0703125 0,2.4257813 0.57422,4.2070313 1.71094,5.42578129 1.14844,1.13671875 2.78906,1.78125 4.93359,1.78125 0.85547,0 1.85157,-0.2109375 2.84766,-0.57421875 1.00781,-0.421875 1.71094,-0.78515625 2.28516,-1.20703125 z M 224.24758,-15.99657 c -0.85547,7.4296872 -4.78125,11.1445309 -11.70703,11.1445309 -1.92188,0 -3.42188,-0.5039062 -4.5,-1.359375 -1.06641,-0.9257812 -1.57032,-2.1445312 -1.57032,-3.6445312 0,-2.2148437 1.00782,-3.8554687 3.07032,-4.9218747 2.07422,-1.066407 5.0039,-1.570313 8.85937,-1.570313 1.5,0 3.42188,0.07031 5.84766,0.351563 z m 39.53027,-18.410157 c -1.71094,-1.429687 -3.78515,-2.144531 -6.35156,-2.144531 -3,0 -5.42578,1.136719 -7.20703,3.421875 -1.86328,2.285156 -3,5.144531 -3.4336,8.71875 h -1.34765 l -0.71485,-11.285156 h -5.57812 V -4.765625e-4 h 6.92578 V -10.992664 c 0,-3.996094 0.43359,-7.429688 1.28906,-10.277344 0.85547,-2.859375 2.14453,-5.003906 3.71485,-6.503906 1.57031,-1.429688 3.28125,-2.214844 5.28515,-2.214844 1.20703,0 2.35547,0.292969 3.35157,0.855469 0.99609,0.574219 1.78125,1.148437 2.21484,1.792969 z m 8.60742,34.4062504375 V -35.695789 h -6.92578 V -4.765625e-4 Z M 271.45949,-40.406727 l 9.64453,-12.421875 h -8.42578 l -6.57422,12.421875 z m 42.5127,39.48046919 -1.64063,-4.28906249 c -0.78515,0.5039062 -1.42969,0.7148437 -2.0039,0.7148437 -0.85547,0 -1.41797,-0.3515625 -1.85157,-1.2070312 -0.42187,-0.8554688 -0.57422,-2.0039063 -0.57422,-3.5039063 V -24.270008 c 0,-3.855469 -1.34765,-6.925781 -3.99609,-9.070312 -2.63672,-2.144532 -6.21094,-3.210938 -10.64062,-3.210938 -4.41797,0 -7.99219,0.996094 -10.76954,2.859375 -2.85937,1.851563 -4.5,4.488281 -4.93359,7.921875 l 5.64844,1.710938 c 0.5625,-2.285157 1.64062,-4.066407 3.05859,-5.214844 1.42969,-1.136719 3.50391,-1.78125 6.07031,-1.78125 5.71875,0 8.63672,2.425781 8.63672,7.207031 v 2.929688 c -2.70703,-0.433594 -5.34375,-0.644532 -7.78125,-0.644532 -5.27343,0 -9.49218,1.007813 -12.63281,3 -3.14062,2.003907 -4.71094,4.921875 -4.71094,8.7773442 0,3.140625 1.06641,5.71875 3.35157,7.7109375 2.21484,2.00390624 5.28515,2.92968749 9.21093,2.92968749 3.50391,0 6.28125,-0.78515625 8.35547,-2.49609379 2.00391,-1.640625 3.42188,-4.21875 4.28906,-7.7109375 h 1.41797 c -0.21093,0.9960938 -0.28125,2.0039063 -0.28125,3.0703125 0,2.4257813 0.57422,4.2070313 1.71094,5.42578129 1.14844,1.13671875 2.78906,1.78125 4.93359,1.78125 0.85547,0 1.85157,-0.2109375 2.84766,-0.57421875 1.00781,-0.421875 1.71094,-0.78515625 2.28516,-1.20703125 z M 300.83547,-15.99657 c -0.85547,7.4296872 -4.78125,11.1445309 -11.70703,11.1445309 -1.92188,0 -3.42188,-0.5039062 -4.5,-1.359375 -1.06641,-0.9257812 -1.57032,-2.1445312 -1.57032,-3.6445312 0,-2.2148437 1.00782,-3.8554687 3.07032,-4.9218747 2.07422,-1.066407 5.0039,-1.570313 8.85937,-1.570313 1.5,0 3.42188,0.07031 5.84766,0.351563 z m 57.32812,-34.335938 v 10.5 c 0,1.992188 0.0703,5.132813 0.36328,9.28125 0.0703,2.285156 0.14063,3.703125 0.14063,4.136719 h -1.42969 c -1.85156,-6.714844 -6.14062,-10.136719 -12.92578,-10.136719 -2.84766,0 -5.56641,0.785156 -8.0625,2.214844 -2.49609,1.429687 -4.5,3.5625 -6,6.421875 -1.5,2.859375 -2.21484,6.28125 -2.21484,10.277344 0,3.996093 0.64453,7.359375 2.07422,10.0664059 1.42968,2.7890625 3.35156,4.8632813 5.85937,6.28125 2.49609,1.42968754 5.34375,2.14453129 8.48438,2.14453129 6.71484,0 10.93359,-3.42187499 12.78515,-10.27734379 h 1.35938 l 0.92578,9.4218750375 h 5.5664 V -50.332508 Z m -4.42968,41.8359377 c -1.99219,2.3554687 -4.5586,3.5039062 -7.71094,3.5039062 -3.42188,0 -6.12891,-1.078125 -7.99219,-3.2929687 -1.85156,-2.2148442 -2.77734,-5.3554692 -2.77734,-9.3515622 0,-4.136719 0.92578,-7.347657 2.91797,-9.773438 1.93359,-2.425781 4.5,-3.644531 7.71093,-3.644531 3.14063,0 5.64844,1.21875 7.64063,3.644531 2.0039,2.425781 3,5.496094 3.14062,9.210938 0,4.136718 -0.99609,7.347656 -2.92968,9.7031247 z m 43.95703,-23.2734377 c -2.85938,-3.140625 -6.78516,-4.78125 -11.63672,-4.78125 -3.57422,0 -6.71485,0.855469 -9.35156,2.496094 -2.64844,1.710937 -4.64063,3.996094 -6,6.925781 -1.42969,2.929688 -2.07422,6.28125 -2.07422,10.066406 0,5.636719 1.42968,10.0664067 4.42968,13.2070317 3,3.14062499 7.20704,4.71093749 12.70313,4.71093749 4.14844,0 7.5,-0.8554687525 10.13672,-2.70703129 2.64844,-1.7929687 4.42969,-4.2890625 5.28515,-7.4296875 l -5.28515,-1.7109374 c -0.85547,1.9921874 -1.99219,3.5624999 -3.5625,4.5703124 -1.57031,1.0664063 -3.64453,1.5703125 -6.14063,1.5703125 -2.85937,0 -5.21484,-0.8554687 -7.0664,-2.71875 -1.86328,-1.78125 -3,-4.3476559 -3.28125,-7.7109379 h 26.05078 c 0.0703,-0.714843 0.14062,-1.851562 0.14062,-3.351562 0,-5.566406 -1.5,-9.925781 -4.34765,-13.136719 z m -18.42188,3.574219 c 1.78125,-1.863281 3.9961,-2.859375 6.71485,-2.859375 2.91796,0 5.20312,0.996094 6.77343,2.859375 1.57032,1.921875 2.35547,4.570312 2.50782,7.921875 H 375.9175 c 0.42187,-3.433594 1.5,-6.070313 3.35156,-7.921875 z m 0,0"
         style="fill:#222221;fill-opacity:1;fill-rule:nonzero;stroke:none"
         aria-label="Secretara de"
         transform="matrix(0.35277776,0,0,0.35277776,-6.5668573,-178.88561)"
         clip-path="url(#clipPath50)"
         id="path9-7" />
    </g>
  </g>
</svg>
